<svg width="1363" height="167" viewBox="0 0 1363 167" fill="none" xmlns="http://www.w3.org/2000/svg">
<rect width="1363" height="167" rx="15" fill="white"/>
<path d="M0 15C0 6.71573 6.71573 0 15 0H37V167H15C6.71573 167 0 160.284 0 152V15Z" fill="#FF914A" fill-opacity="0.5"/>
<path d="M100.168 51.918H95.8203V49.1758H100.168C100.84 49.1758 101.387 49.0664 101.809 48.8477C102.23 48.6211 102.539 48.3086 102.734 47.9102C102.93 47.5117 103.027 47.0625 103.027 46.5625C103.027 46.0547 102.93 45.582 102.734 45.1445C102.539 44.707 102.23 44.3555 101.809 44.0898C101.387 43.8242 100.84 43.6914 100.168 43.6914H97.0391V58H93.5234V40.9375H100.168C101.504 40.9375 102.648 41.1797 103.602 41.6641C104.562 42.1406 105.297 42.8008 105.805 43.6445C106.312 44.4883 106.566 45.4531 106.566 46.5391C106.566 47.6406 106.312 48.5938 105.805 49.3984C105.297 50.2031 104.562 50.8242 103.602 51.2617C102.648 51.6992 101.504 51.918 100.168 51.918ZM116.281 54.9648V45.3203H119.656V58H116.48L116.281 54.9648ZM116.656 52.3633L117.652 52.3398C117.652 53.1836 117.555 53.9688 117.359 54.6953C117.164 55.4141 116.871 56.0391 116.48 56.5703C116.09 57.0938 115.598 57.5039 115.004 57.8008C114.41 58.0898 113.711 58.2344 112.906 58.2344C112.289 58.2344 111.719 58.1484 111.195 57.9766C110.68 57.7969 110.234 57.5195 109.859 57.1445C109.492 56.7617 109.203 56.2734 108.992 55.6797C108.789 55.0781 108.688 54.3555 108.688 53.5117V45.3203H112.062V53.5352C112.062 53.9102 112.105 54.2266 112.191 54.4844C112.285 54.7422 112.414 54.9531 112.578 55.1172C112.742 55.2812 112.934 55.3984 113.152 55.4688C113.379 55.5391 113.629 55.5742 113.902 55.5742C114.598 55.5742 115.145 55.4336 115.543 55.1523C115.949 54.8711 116.234 54.4883 116.398 54.0039C116.57 53.5117 116.656 52.9648 116.656 52.3633ZM125.609 48.0859V58H122.234V45.3203H125.41L125.609 48.0859ZM129.43 45.2383L129.371 48.3672C129.207 48.3438 129.008 48.3242 128.773 48.3086C128.547 48.2852 128.34 48.2734 128.152 48.2734C127.676 48.2734 127.262 48.3359 126.91 48.4609C126.566 48.5781 126.277 48.7539 126.043 48.9883C125.816 49.2227 125.645 49.5078 125.527 49.8438C125.418 50.1797 125.355 50.5625 125.34 50.9922L124.66 50.7812C124.66 49.9609 124.742 49.207 124.906 48.5195C125.07 47.8242 125.309 47.2188 125.621 46.7031C125.941 46.1875 126.332 45.7891 126.793 45.5078C127.254 45.2266 127.781 45.0859 128.375 45.0859C128.562 45.0859 128.754 45.1016 128.949 45.1328C129.145 45.1562 129.305 45.1914 129.43 45.2383ZM134.398 48.0859V58H131.023V45.3203H134.199L134.398 48.0859ZM138.219 45.2383L138.16 48.3672C137.996 48.3438 137.797 48.3242 137.562 48.3086C137.336 48.2852 137.129 48.2734 136.941 48.2734C136.465 48.2734 136.051 48.3359 135.699 48.4609C135.355 48.5781 135.066 48.7539 134.832 48.9883C134.605 49.2227 134.434 49.5078 134.316 49.8438C134.207 50.1797 134.145 50.5625 134.129 50.9922L133.449 50.7812C133.449 49.9609 133.531 49.207 133.695 48.5195C133.859 47.8242 134.098 47.2188 134.41 46.7031C134.73 46.1875 135.121 45.7891 135.582 45.5078C136.043 45.2266 136.57 45.0859 137.164 45.0859C137.352 45.0859 137.543 45.1016 137.738 45.1328C137.934 45.1562 138.094 45.1914 138.219 45.2383ZM144.348 58H140.949V44.1953C140.949 43.2344 141.137 42.4258 141.512 41.7695C141.895 41.1055 142.43 40.6055 143.117 40.2695C143.812 39.9258 144.637 39.7539 145.59 39.7539C145.902 39.7539 146.203 39.7773 146.492 39.8242C146.781 39.8633 147.062 39.9141 147.336 39.9766L147.301 42.5195C147.152 42.4805 146.996 42.4531 146.832 42.4375C146.668 42.4219 146.477 42.4141 146.258 42.4141C145.852 42.4141 145.504 42.4844 145.215 42.625C144.934 42.7578 144.719 42.957 144.57 43.2227C144.422 43.4883 144.348 43.8125 144.348 44.1953V58ZM146.879 45.3203V47.7109H139.062V45.3203H146.879ZM154.203 58.2344C153.219 58.2344 152.336 58.0781 151.555 57.7656C150.773 57.4453 150.109 57.0039 149.562 56.4414C149.023 55.8789 148.609 55.2266 148.32 54.4844C148.031 53.7344 147.887 52.9375 147.887 52.0938V51.625C147.887 50.6641 148.023 49.7852 148.297 48.9883C148.57 48.1914 148.961 47.5 149.469 46.9141C149.984 46.3281 150.609 45.8789 151.344 45.5664C152.078 45.2461 152.906 45.0859 153.828 45.0859C154.727 45.0859 155.523 45.2344 156.219 45.5312C156.914 45.8281 157.496 46.25 157.965 46.7969C158.441 47.3438 158.801 48 159.043 48.7656C159.285 49.5234 159.406 50.3672 159.406 51.2969V52.7031H149.328V50.4531H156.09V50.1953C156.09 49.7266 156.004 49.3086 155.832 48.9414C155.668 48.5664 155.418 48.2695 155.082 48.0508C154.746 47.832 154.316 47.7227 153.793 47.7227C153.348 47.7227 152.965 47.8203 152.645 48.0156C152.324 48.2109 152.062 48.4844 151.859 48.8359C151.664 49.1875 151.516 49.6016 151.414 50.0781C151.32 50.5469 151.273 51.0625 151.273 51.625V52.0938C151.273 52.6016 151.344 53.0703 151.484 53.5C151.633 53.9297 151.84 54.3008 152.105 54.6133C152.379 54.9258 152.707 55.168 153.09 55.3398C153.48 55.5117 153.922 55.5977 154.414 55.5977C155.023 55.5977 155.59 55.4805 156.113 55.2461C156.645 55.0039 157.102 54.6406 157.484 54.1562L159.125 55.9375C158.859 56.3203 158.496 56.6875 158.035 57.0391C157.582 57.3906 157.035 57.6797 156.395 57.9062C155.754 58.125 155.023 58.2344 154.203 58.2344ZM166.566 55.5977C166.98 55.5977 167.348 55.5195 167.668 55.3633C167.988 55.1992 168.238 54.9727 168.418 54.6836C168.605 54.3867 168.703 54.0391 168.711 53.6406H171.887C171.879 54.5312 171.641 55.3242 171.172 56.0195C170.703 56.707 170.074 57.25 169.285 57.6484C168.496 58.0391 167.613 58.2344 166.637 58.2344C165.652 58.2344 164.793 58.0703 164.059 57.7422C163.332 57.4141 162.727 56.9609 162.242 56.3828C161.758 55.7969 161.395 55.1172 161.152 54.3438C160.91 53.5625 160.789 52.7266 160.789 51.8359V51.4961C160.789 50.5977 160.91 49.7617 161.152 48.9883C161.395 48.207 161.758 47.5273 162.242 46.9492C162.727 46.3633 163.332 45.9062 164.059 45.5781C164.785 45.25 165.637 45.0859 166.613 45.0859C167.652 45.0859 168.562 45.2852 169.344 45.6836C170.133 46.082 170.75 46.6523 171.195 47.3945C171.648 48.1289 171.879 49 171.887 50.0078H168.711C168.703 49.5859 168.613 49.2031 168.441 48.8594C168.277 48.5156 168.035 48.2422 167.715 48.0391C167.402 47.8281 167.016 47.7227 166.555 47.7227C166.062 47.7227 165.66 47.8281 165.348 48.0391C165.035 48.2422 164.793 48.5234 164.621 48.8828C164.449 49.2344 164.328 49.6367 164.258 50.0898C164.195 50.5352 164.164 51.0039 164.164 51.4961V51.8359C164.164 52.3281 164.195 52.8008 164.258 53.2539C164.32 53.707 164.438 54.1094 164.609 54.4609C164.789 54.8125 165.035 55.0898 165.348 55.293C165.66 55.4961 166.066 55.5977 166.566 55.5977ZM180.055 45.3203V47.7109H172.672V45.3203H180.055ZM174.5 42.1914H177.875V54.1797C177.875 54.5469 177.922 54.8281 178.016 55.0234C178.117 55.2188 178.266 55.3555 178.461 55.4336C178.656 55.5039 178.902 55.5391 179.199 55.5391C179.41 55.5391 179.598 55.5312 179.762 55.5156C179.934 55.4922 180.078 55.4688 180.195 55.4453L180.207 57.9297C179.918 58.0234 179.605 58.0977 179.27 58.1523C178.934 58.207 178.562 58.2344 178.156 58.2344C177.414 58.2344 176.766 58.1133 176.211 57.8711C175.664 57.6211 175.242 57.2227 174.945 56.6758C174.648 56.1289 174.5 55.4102 174.5 54.5195V42.1914ZM194.809 51.918H190.461V49.1758H194.809C195.48 49.1758 196.027 49.0664 196.449 48.8477C196.871 48.6211 197.18 48.3086 197.375 47.9102C197.57 47.5117 197.668 47.0625 197.668 46.5625C197.668 46.0547 197.57 45.582 197.375 45.1445C197.18 44.707 196.871 44.3555 196.449 44.0898C196.027 43.8242 195.48 43.6914 194.809 43.6914H191.68V58H188.164V40.9375H194.809C196.145 40.9375 197.289 41.1797 198.242 41.6641C199.203 42.1406 199.938 42.8008 200.445 43.6445C200.953 44.4883 201.207 45.4531 201.207 46.5391C201.207 47.6406 200.953 48.5938 200.445 49.3984C199.938 50.2031 199.203 50.8242 198.242 51.2617C197.289 51.6992 196.145 51.918 194.809 51.918ZM210.125 55.1406V49.4922C210.125 49.0859 210.059 48.7383 209.926 48.4492C209.793 48.1523 209.586 47.9219 209.305 47.7578C209.031 47.5938 208.676 47.5117 208.238 47.5117C207.863 47.5117 207.539 47.5781 207.266 47.7109C206.992 47.8359 206.781 48.0195 206.633 48.2617C206.484 48.4961 206.41 48.7734 206.41 49.0938H203.035C203.035 48.5547 203.16 48.043 203.41 47.5586C203.66 47.0742 204.023 46.6484 204.5 46.2812C204.977 45.9062 205.543 45.6133 206.199 45.4023C206.863 45.1914 207.605 45.0859 208.426 45.0859C209.41 45.0859 210.285 45.25 211.051 45.5781C211.816 45.9062 212.418 46.3984 212.855 47.0547C213.301 47.7109 213.523 48.5312 213.523 49.5156V54.9414C213.523 55.6367 213.566 56.207 213.652 56.6523C213.738 57.0898 213.863 57.4727 214.027 57.8008V58H210.617C210.453 57.6562 210.328 57.2266 210.242 56.7109C210.164 56.1875 210.125 55.6641 210.125 55.1406ZM210.57 50.2773L210.594 52.1875H208.707C208.262 52.1875 207.875 52.2383 207.547 52.3398C207.219 52.4414 206.949 52.5859 206.738 52.7734C206.527 52.9531 206.371 53.1641 206.27 53.4062C206.176 53.6484 206.129 53.9141 206.129 54.2031C206.129 54.4922 206.195 54.7539 206.328 54.9883C206.461 55.2148 206.652 55.3945 206.902 55.5273C207.152 55.6523 207.445 55.7148 207.781 55.7148C208.289 55.7148 208.73 55.6133 209.105 55.4102C209.48 55.207 209.77 54.957 209.973 54.6602C210.184 54.3633 210.293 54.082 210.301 53.8164L211.191 55.2461C211.066 55.5664 210.895 55.8984 210.676 56.2422C210.465 56.5859 210.195 56.9102 209.867 57.2148C209.539 57.5117 209.145 57.7578 208.684 57.9531C208.223 58.1406 207.676 58.2344 207.043 58.2344C206.238 58.2344 205.508 58.0742 204.852 57.7539C204.203 57.4258 203.688 56.9766 203.305 56.4062C202.93 55.8281 202.742 55.1719 202.742 54.4375C202.742 53.7734 202.867 53.1836 203.117 52.668C203.367 52.1523 203.734 51.7188 204.219 51.3672C204.711 51.0078 205.324 50.7383 206.059 50.5586C206.793 50.3711 207.645 50.2773 208.613 50.2773H210.57ZM219.688 40V58H216.301V40H219.688ZM229.332 54.4961C229.332 54.2539 229.262 54.0352 229.121 53.8398C228.98 53.6445 228.719 53.4648 228.336 53.3008C227.961 53.1289 227.418 52.9727 226.707 52.832C226.066 52.6914 225.469 52.5156 224.914 52.3047C224.367 52.0859 223.891 51.8242 223.484 51.5195C223.086 51.2148 222.773 50.8555 222.547 50.4414C222.32 50.0195 222.207 49.5391 222.207 49C222.207 48.4688 222.32 47.9688 222.547 47.5C222.781 47.0312 223.113 46.6172 223.543 46.2578C223.98 45.8906 224.512 45.6055 225.137 45.4023C225.77 45.1914 226.48 45.0859 227.27 45.0859C228.371 45.0859 229.316 45.2617 230.105 45.6133C230.902 45.9648 231.512 46.4492 231.934 47.0664C232.363 47.6758 232.578 48.3711 232.578 49.1523H229.203C229.203 48.8242 229.133 48.5312 228.992 48.2734C228.859 48.0078 228.648 47.8008 228.359 47.6523C228.078 47.4961 227.711 47.418 227.258 47.418C226.883 47.418 226.559 47.4844 226.285 47.6172C226.012 47.7422 225.801 47.9141 225.652 48.1328C225.512 48.3438 225.441 48.5781 225.441 48.8359C225.441 49.0312 225.48 49.207 225.559 49.3633C225.645 49.5117 225.781 49.6484 225.969 49.7734C226.156 49.8984 226.398 50.0156 226.695 50.125C227 50.2266 227.375 50.3203 227.82 50.4062C228.734 50.5938 229.551 50.8398 230.27 51.1445C230.988 51.4414 231.559 51.8477 231.98 52.3633C232.402 52.8711 232.613 53.5391 232.613 54.3672C232.613 54.9297 232.488 55.4453 232.238 55.9141C231.988 56.3828 231.629 56.793 231.16 57.1445C230.691 57.4883 230.129 57.7578 229.473 57.9531C228.824 58.1406 228.094 58.2344 227.281 58.2344C226.102 58.2344 225.102 58.0234 224.281 57.6016C223.469 57.1797 222.852 56.6445 222.43 55.9961C222.016 55.3398 221.809 54.668 221.809 53.9805H225.008C225.023 54.4414 225.141 54.8125 225.359 55.0938C225.586 55.375 225.871 55.5781 226.215 55.7031C226.566 55.8281 226.945 55.8906 227.352 55.8906C227.789 55.8906 228.152 55.832 228.441 55.7148C228.73 55.5898 228.949 55.4258 229.098 55.2227C229.254 55.0117 229.332 54.7695 229.332 54.4961Z" fill="#008080" fill-opacity="0.5"/>
<path d="M115.994 98.708V104.641H99.5806V98.708H115.994ZM102.151 86.0078V118H94.439V86.0078H102.151ZM121.18 86.0078V118H113.489V86.0078H121.18ZM124.805 106.354V105.893C124.805 104.15 125.054 102.546 125.552 101.081C126.05 99.6016 126.783 98.3198 127.75 97.2358C128.716 96.1519 129.91 95.3096 131.331 94.709C132.752 94.0938 134.393 93.7861 136.253 93.7861C138.128 93.7861 139.776 94.0938 141.197 94.709C142.632 95.3096 143.833 96.1519 144.8 97.2358C145.767 98.3198 146.5 99.6016 146.998 101.081C147.496 102.546 147.745 104.15 147.745 105.893V106.354C147.745 108.083 147.496 109.687 146.998 111.167C146.5 112.631 145.767 113.913 144.8 115.012C143.833 116.096 142.64 116.938 141.219 117.539C139.798 118.139 138.157 118.439 136.297 118.439C134.437 118.439 132.789 118.139 131.353 117.539C129.917 116.938 128.716 116.096 127.75 115.012C126.783 113.913 126.05 112.631 125.552 111.167C125.054 109.687 124.805 108.083 124.805 106.354ZM132.21 105.893V106.354C132.21 107.248 132.276 108.083 132.408 108.859C132.54 109.636 132.759 110.317 133.067 110.903C133.375 111.474 133.792 111.921 134.319 112.243C134.847 112.565 135.506 112.727 136.297 112.727C137.073 112.727 137.718 112.565 138.23 112.243C138.758 111.921 139.175 111.474 139.483 110.903C139.791 110.317 140.01 109.636 140.142 108.859C140.274 108.083 140.34 107.248 140.34 106.354V105.893C140.34 105.029 140.274 104.216 140.142 103.454C140.01 102.678 139.791 101.997 139.483 101.411C139.175 100.81 138.758 100.341 138.23 100.004C137.703 99.6675 137.044 99.499 136.253 99.499C135.477 99.499 134.825 99.6675 134.297 100.004C133.785 100.341 133.375 100.81 133.067 101.411C132.759 101.997 132.54 102.678 132.408 103.454C132.276 104.216 132.21 105.029 132.21 105.893ZM158.27 110.925L162.664 94.2256H167.3L165.652 102.597L161.302 118H157.588L158.27 110.925ZM156.534 94.2256L159.258 110.793L159.566 118H155.062L149.437 94.2256H156.534ZM171.211 110.441L173.958 94.2256H181.055L175.474 118H170.97L171.211 110.441ZM167.828 94.2256L172.266 110.881L172.947 118H169.19L164.927 102.641L163.345 94.2256H167.828ZM209.466 86.0078V118H201.753V86.0078H209.466ZM219.09 86.0078V91.9624H192.349V86.0078H219.09ZM216.475 106.354V105.893C216.475 104.15 216.724 102.546 217.222 101.081C217.72 99.6016 218.453 98.3198 219.419 97.2358C220.386 96.1519 221.58 95.3096 223.001 94.709C224.422 94.0938 226.062 93.7861 227.923 93.7861C229.798 93.7861 231.446 94.0938 232.867 94.709C234.302 95.3096 235.503 96.1519 236.47 97.2358C237.437 98.3198 238.169 99.6016 238.667 101.081C239.166 102.546 239.415 104.15 239.415 105.893V106.354C239.415 108.083 239.166 109.687 238.667 111.167C238.169 112.631 237.437 113.913 236.47 115.012C235.503 116.096 234.31 116.938 232.889 117.539C231.468 118.139 229.827 118.439 227.967 118.439C226.106 118.439 224.458 118.139 223.023 117.539C221.587 116.938 220.386 116.096 219.419 115.012C218.453 113.913 217.72 112.631 217.222 111.167C216.724 109.687 216.475 108.083 216.475 106.354ZM223.88 105.893V106.354C223.88 107.248 223.946 108.083 224.078 108.859C224.209 109.636 224.429 110.317 224.737 110.903C225.044 111.474 225.462 111.921 225.989 112.243C226.517 112.565 227.176 112.727 227.967 112.727C228.743 112.727 229.388 112.565 229.9 112.243C230.428 111.921 230.845 111.474 231.153 110.903C231.46 110.317 231.68 109.636 231.812 108.859C231.944 108.083 232.01 107.248 232.01 106.354V105.893C232.01 105.029 231.944 104.216 231.812 103.454C231.68 102.678 231.46 101.997 231.153 101.411C230.845 100.81 230.428 100.341 229.9 100.004C229.373 99.6675 228.714 99.499 227.923 99.499C227.146 99.499 226.495 99.6675 225.967 100.004C225.455 100.341 225.044 100.81 224.737 101.411C224.429 101.997 224.209 102.678 224.078 103.454C223.946 104.216 223.88 105.029 223.88 105.893ZM254.268 86.0078H266.858C269.319 86.0078 271.458 86.374 273.274 87.1064C275.091 87.8389 276.49 88.9229 277.471 90.3584C278.467 91.7939 278.965 93.5664 278.965 95.6758C278.965 97.5068 278.68 99.0376 278.108 100.268C277.537 101.499 276.739 102.517 275.713 103.322C274.703 104.113 273.523 104.765 272.176 105.278L269.649 106.706H259.08L259.036 100.751H266.858C267.84 100.751 268.653 100.576 269.297 100.224C269.942 99.8726 270.425 99.3745 270.748 98.73C271.084 98.0708 271.253 97.2871 271.253 96.3789C271.253 95.4561 271.084 94.665 270.748 94.0059C270.411 93.3467 269.913 92.8413 269.253 92.4897C268.609 92.1382 267.811 91.9624 266.858 91.9624H261.98V118H254.268V86.0078ZM271.78 118L264.705 103.85L272.879 103.806L280.042 117.67V118H271.78ZM297.159 112.221V94.2256H304.585V118H297.642L297.159 112.221ZM297.862 107.387L299.795 107.343C299.795 108.94 299.605 110.419 299.224 111.782C298.843 113.129 298.279 114.301 297.532 115.297C296.8 116.293 295.892 117.07 294.808 117.626C293.738 118.168 292.5 118.439 291.094 118.439C289.922 118.439 288.846 118.278 287.864 117.956C286.897 117.619 286.062 117.099 285.359 116.396C284.656 115.678 284.107 114.763 283.711 113.649C283.331 112.521 283.14 111.174 283.14 109.606V94.2256H290.545V109.65C290.545 110.178 290.611 110.632 290.743 111.013C290.875 111.394 291.065 111.716 291.314 111.979C291.563 112.229 291.871 112.419 292.237 112.551C292.618 112.668 293.05 112.727 293.533 112.727C294.646 112.727 295.518 112.492 296.148 112.023C296.778 111.555 297.217 110.917 297.466 110.112C297.73 109.306 297.862 108.398 297.862 107.387ZM315.945 99.3013V118H308.541V94.2256H315.484L315.945 99.3013ZM315.066 105.3L313.331 105.344C313.331 103.527 313.55 101.909 313.99 100.488C314.429 99.0522 315.052 97.8364 315.857 96.8403C316.663 95.8442 317.623 95.0898 318.736 94.5771C319.864 94.0498 321.116 93.7861 322.493 93.7861C323.592 93.7861 324.595 93.9473 325.503 94.2695C326.426 94.5918 327.217 95.1118 327.876 95.8296C328.55 96.5474 329.063 97.4995 329.415 98.686C329.781 99.8579 329.964 101.308 329.964 103.037V118H322.515V103.015C322.515 102.062 322.383 101.337 322.12 100.839C321.856 100.327 321.475 99.9751 320.977 99.7847C320.479 99.5942 319.871 99.499 319.153 99.499C318.392 99.499 317.747 99.6455 317.22 99.9385C316.692 100.231 316.268 100.642 315.945 101.169C315.638 101.682 315.411 102.29 315.264 102.993C315.132 103.696 315.066 104.465 315.066 105.3ZM345.85 107.871H339.544C339.544 106.582 339.632 105.446 339.808 104.465C339.998 103.469 340.32 102.575 340.774 101.784C341.229 100.993 341.844 100.261 342.62 99.5869C343.309 99.0156 343.902 98.4663 344.4 97.939C344.898 97.4116 345.279 96.877 345.542 96.335C345.806 95.793 345.938 95.2144 345.938 94.5991C345.938 93.8374 345.828 93.2148 345.608 92.7314C345.403 92.248 345.088 91.8892 344.664 91.6548C344.253 91.4058 343.733 91.2812 343.104 91.2812C342.591 91.2812 342.107 91.4058 341.653 91.6548C341.214 91.9038 340.855 92.292 340.577 92.8193C340.298 93.332 340.145 94.0132 340.115 94.8628H332.667C332.71 92.6802 333.194 90.9077 334.117 89.5454C335.054 88.1685 336.299 87.165 337.852 86.5352C339.419 85.8906 341.17 85.5684 343.104 85.5684C345.242 85.5684 347.081 85.8979 348.619 86.5571C350.157 87.2163 351.336 88.1978 352.156 89.5015C352.977 90.7905 353.387 92.3799 353.387 94.2695C353.387 95.5293 353.145 96.6279 352.662 97.5654C352.193 98.4883 351.556 99.3525 350.75 100.158C349.959 100.949 349.073 101.799 348.091 102.707C347.242 103.454 346.663 104.216 346.355 104.992C346.048 105.754 345.879 106.713 345.85 107.871ZM338.643 114.55C338.643 113.496 339.024 112.617 339.786 111.914C340.547 111.196 341.536 110.837 342.752 110.837C343.968 110.837 344.957 111.196 345.718 111.914C346.48 112.617 346.861 113.496 346.861 114.55C346.861 115.605 346.48 116.491 345.718 117.209C344.957 117.912 343.968 118.264 342.752 118.264C341.536 118.264 340.547 117.912 339.786 117.209C339.024 116.491 338.643 115.605 338.643 114.55Z" fill="#008080"/>
<path d="M1363 15C1363 6.71573 1356.28 0 1348 0H1134V167H1348C1356.28 167 1363 160.284 1363 152V15Z" fill="#FF914A"/>
<path d="M1260.77 81.3079C1263.96 81.3079 1267.09 82.2553 1269.74 84.0303C1272.4 85.8053 1274.47 88.3282 1275.69 91.2799C1276.92 94.2316 1277.24 97.4796 1276.61 100.613C1275.99 103.747 1274.45 106.625 1272.19 108.884C1269.93 111.143 1267.05 112.682 1263.92 113.305C1260.79 113.928 1257.54 113.608 1254.59 112.386C1251.64 111.163 1249.11 109.093 1247.34 106.436C1245.56 103.78 1244.62 100.657 1244.62 97.4617C1244.62 93.1774 1246.32 89.0686 1249.35 86.0392C1252.38 83.0098 1256.48 81.3079 1260.77 81.3079ZM1260.77 75.9233C1256.51 75.9233 1252.35 77.1865 1248.8 79.5532C1245.26 81.9198 1242.5 85.2837 1240.87 89.2193C1239.24 93.1549 1238.81 97.4856 1239.64 101.664C1240.48 105.842 1242.53 109.679 1245.54 112.692C1248.55 115.704 1252.39 117.755 1256.57 118.586C1260.75 119.417 1265.08 118.991 1269.01 117.361C1272.95 115.73 1276.31 112.97 1278.68 109.428C1281.04 105.886 1282.31 101.722 1282.31 97.4617C1282.31 91.7493 1280.04 86.271 1276 82.2317C1271.96 78.1925 1266.48 75.9233 1260.77 75.9233Z" fill="white"/>
<path d="M1274.23 49H1220.38C1218.96 49 1217.59 49.5673 1216.58 50.5771C1215.57 51.5869 1215 52.9565 1215 54.3846V108.231C1215 109.659 1215.57 111.028 1216.58 112.038C1217.59 113.048 1218.96 113.615 1220.38 113.615H1231.15V108.231H1220.38V70.5384H1279.62V54.3846C1279.62 52.9565 1279.05 51.5869 1278.04 50.5771C1277.03 49.5673 1275.66 49 1274.23 49ZM1220.38 65.1538V54.3846H1274.23V65.1538H1220.38Z" fill="white"/>
<path d="M1255.38 89.3849V105.539L1268.85 97.4618L1255.38 89.3849Z" fill="white"/>
</svg>
