<svg width="1363" height="167" viewBox="0 0 1363 167" fill="none" xmlns="http://www.w3.org/2000/svg">
<rect width="1363" height="167" rx="15" fill="white"/>
<path d="M0 15C0 6.71573 6.71573 0 15 0H37V167H15C6.71573 167 0 160.284 0 152V15Z" fill="#FF914A" fill-opacity="0.5"/>
<path d="M100.168 51.918H95.8203V49.1758H100.168C100.84 49.1758 101.387 49.0664 101.809 48.8477C102.23 48.6211 102.539 48.3086 102.734 47.9102C102.93 47.5117 103.027 47.0625 103.027 46.5625C103.027 46.0547 102.93 45.582 102.734 45.1445C102.539 44.707 102.23 44.3555 101.809 44.0898C101.387 43.8242 100.84 43.6914 100.168 43.6914H97.0391V58H93.5234V40.9375H100.168C101.504 40.9375 102.648 41.1797 103.602 41.6641C104.562 42.1406 105.297 42.8008 105.805 43.6445C106.312 44.4883 106.566 45.4531 106.566 46.5391C106.566 47.6406 106.312 48.5938 105.805 49.3984C105.297 50.2031 104.562 50.8242 103.602 51.2617C102.648 51.6992 101.504 51.918 100.168 51.918ZM116.281 54.9648V45.3203H119.656V58H116.48L116.281 54.9648ZM116.656 52.3633L117.652 52.3398C117.652 53.1836 117.555 53.9688 117.359 54.6953C117.164 55.4141 116.871 56.0391 116.48 56.5703C116.09 57.0938 115.598 57.5039 115.004 57.8008C114.41 58.0898 113.711 58.2344 112.906 58.2344C112.289 58.2344 111.719 58.1484 111.195 57.9766C110.68 57.7969 110.234 57.5195 109.859 57.1445C109.492 56.7617 109.203 56.2734 108.992 55.6797C108.789 55.0781 108.688 54.3555 108.688 53.5117V45.3203H112.062V53.5352C112.062 53.9102 112.105 54.2266 112.191 54.4844C112.285 54.7422 112.414 54.9531 112.578 55.1172C112.742 55.2812 112.934 55.3984 113.152 55.4688C113.379 55.5391 113.629 55.5742 113.902 55.5742C114.598 55.5742 115.145 55.4336 115.543 55.1523C115.949 54.8711 116.234 54.4883 116.398 54.0039C116.57 53.5117 116.656 52.9648 116.656 52.3633ZM125.609 48.0859V58H122.234V45.3203H125.41L125.609 48.0859ZM129.43 45.2383L129.371 48.3672C129.207 48.3438 129.008 48.3242 128.773 48.3086C128.547 48.2852 128.34 48.2734 128.152 48.2734C127.676 48.2734 127.262 48.3359 126.91 48.4609C126.566 48.5781 126.277 48.7539 126.043 48.9883C125.816 49.2227 125.645 49.5078 125.527 49.8438C125.418 50.1797 125.355 50.5625 125.34 50.9922L124.66 50.7812C124.66 49.9609 124.742 49.207 124.906 48.5195C125.07 47.8242 125.309 47.2188 125.621 46.7031C125.941 46.1875 126.332 45.7891 126.793 45.5078C127.254 45.2266 127.781 45.0859 128.375 45.0859C128.562 45.0859 128.754 45.1016 128.949 45.1328C129.145 45.1562 129.305 45.1914 129.43 45.2383ZM134.398 48.0859V58H131.023V45.3203H134.199L134.398 48.0859ZM138.219 45.2383L138.16 48.3672C137.996 48.3438 137.797 48.3242 137.562 48.3086C137.336 48.2852 137.129 48.2734 136.941 48.2734C136.465 48.2734 136.051 48.3359 135.699 48.4609C135.355 48.5781 135.066 48.7539 134.832 48.9883C134.605 49.2227 134.434 49.5078 134.316 49.8438C134.207 50.1797 134.145 50.5625 134.129 50.9922L133.449 50.7812C133.449 49.9609 133.531 49.207 133.695 48.5195C133.859 47.8242 134.098 47.2188 134.41 46.7031C134.73 46.1875 135.121 45.7891 135.582 45.5078C136.043 45.2266 136.57 45.0859 137.164 45.0859C137.352 45.0859 137.543 45.1016 137.738 45.1328C137.934 45.1562 138.094 45.1914 138.219 45.2383ZM144.348 58H140.949V44.1953C140.949 43.2344 141.137 42.4258 141.512 41.7695C141.895 41.1055 142.43 40.6055 143.117 40.2695C143.812 39.9258 144.637 39.7539 145.59 39.7539C145.902 39.7539 146.203 39.7773 146.492 39.8242C146.781 39.8633 147.062 39.9141 147.336 39.9766L147.301 42.5195C147.152 42.4805 146.996 42.4531 146.832 42.4375C146.668 42.4219 146.477 42.4141 146.258 42.4141C145.852 42.4141 145.504 42.4844 145.215 42.625C144.934 42.7578 144.719 42.957 144.57 43.2227C144.422 43.4883 144.348 43.8125 144.348 44.1953V58ZM146.879 45.3203V47.7109H139.062V45.3203H146.879ZM154.203 58.2344C153.219 58.2344 152.336 58.0781 151.555 57.7656C150.773 57.4453 150.109 57.0039 149.562 56.4414C149.023 55.8789 148.609 55.2266 148.32 54.4844C148.031 53.7344 147.887 52.9375 147.887 52.0938V51.625C147.887 50.6641 148.023 49.7852 148.297 48.9883C148.57 48.1914 148.961 47.5 149.469 46.9141C149.984 46.3281 150.609 45.8789 151.344 45.5664C152.078 45.2461 152.906 45.0859 153.828 45.0859C154.727 45.0859 155.523 45.2344 156.219 45.5312C156.914 45.8281 157.496 46.25 157.965 46.7969C158.441 47.3438 158.801 48 159.043 48.7656C159.285 49.5234 159.406 50.3672 159.406 51.2969V52.7031H149.328V50.4531H156.09V50.1953C156.09 49.7266 156.004 49.3086 155.832 48.9414C155.668 48.5664 155.418 48.2695 155.082 48.0508C154.746 47.832 154.316 47.7227 153.793 47.7227C153.348 47.7227 152.965 47.8203 152.645 48.0156C152.324 48.2109 152.062 48.4844 151.859 48.8359C151.664 49.1875 151.516 49.6016 151.414 50.0781C151.32 50.5469 151.273 51.0625 151.273 51.625V52.0938C151.273 52.6016 151.344 53.0703 151.484 53.5C151.633 53.9297 151.84 54.3008 152.105 54.6133C152.379 54.9258 152.707 55.168 153.09 55.3398C153.48 55.5117 153.922 55.5977 154.414 55.5977C155.023 55.5977 155.59 55.4805 156.113 55.2461C156.645 55.0039 157.102 54.6406 157.484 54.1562L159.125 55.9375C158.859 56.3203 158.496 56.6875 158.035 57.0391C157.582 57.3906 157.035 57.6797 156.395 57.9062C155.754 58.125 155.023 58.2344 154.203 58.2344ZM166.566 55.5977C166.98 55.5977 167.348 55.5195 167.668 55.3633C167.988 55.1992 168.238 54.9727 168.418 54.6836C168.605 54.3867 168.703 54.0391 168.711 53.6406H171.887C171.879 54.5312 171.641 55.3242 171.172 56.0195C170.703 56.707 170.074 57.25 169.285 57.6484C168.496 58.0391 167.613 58.2344 166.637 58.2344C165.652 58.2344 164.793 58.0703 164.059 57.7422C163.332 57.4141 162.727 56.9609 162.242 56.3828C161.758 55.7969 161.395 55.1172 161.152 54.3438C160.91 53.5625 160.789 52.7266 160.789 51.8359V51.4961C160.789 50.5977 160.91 49.7617 161.152 48.9883C161.395 48.207 161.758 47.5273 162.242 46.9492C162.727 46.3633 163.332 45.9062 164.059 45.5781C164.785 45.25 165.637 45.0859 166.613 45.0859C167.652 45.0859 168.562 45.2852 169.344 45.6836C170.133 46.082 170.75 46.6523 171.195 47.3945C171.648 48.1289 171.879 49 171.887 50.0078H168.711C168.703 49.5859 168.613 49.2031 168.441 48.8594C168.277 48.5156 168.035 48.2422 167.715 48.0391C167.402 47.8281 167.016 47.7227 166.555 47.7227C166.062 47.7227 165.66 47.8281 165.348 48.0391C165.035 48.2422 164.793 48.5234 164.621 48.8828C164.449 49.2344 164.328 49.6367 164.258 50.0898C164.195 50.5352 164.164 51.0039 164.164 51.4961V51.8359C164.164 52.3281 164.195 52.8008 164.258 53.2539C164.32 53.707 164.438 54.1094 164.609 54.4609C164.789 54.8125 165.035 55.0898 165.348 55.293C165.66 55.4961 166.066 55.5977 166.566 55.5977ZM180.055 45.3203V47.7109H172.672V45.3203H180.055ZM174.5 42.1914H177.875V54.1797C177.875 54.5469 177.922 54.8281 178.016 55.0234C178.117 55.2188 178.266 55.3555 178.461 55.4336C178.656 55.5039 178.902 55.5391 179.199 55.5391C179.41 55.5391 179.598 55.5312 179.762 55.5156C179.934 55.4922 180.078 55.4688 180.195 55.4453L180.207 57.9297C179.918 58.0234 179.605 58.0977 179.27 58.1523C178.934 58.207 178.562 58.2344 178.156 58.2344C177.414 58.2344 176.766 58.1133 176.211 57.8711C175.664 57.6211 175.242 57.2227 174.945 56.6758C174.648 56.1289 174.5 55.4102 174.5 54.5195V42.1914ZM194.809 51.918H190.461V49.1758H194.809C195.48 49.1758 196.027 49.0664 196.449 48.8477C196.871 48.6211 197.18 48.3086 197.375 47.9102C197.57 47.5117 197.668 47.0625 197.668 46.5625C197.668 46.0547 197.57 45.582 197.375 45.1445C197.18 44.707 196.871 44.3555 196.449 44.0898C196.027 43.8242 195.48 43.6914 194.809 43.6914H191.68V58H188.164V40.9375H194.809C196.145 40.9375 197.289 41.1797 198.242 41.6641C199.203 42.1406 199.938 42.8008 200.445 43.6445C200.953 44.4883 201.207 45.4531 201.207 46.5391C201.207 47.6406 200.953 48.5938 200.445 49.3984C199.938 50.2031 199.203 50.8242 198.242 51.2617C197.289 51.6992 196.145 51.918 194.809 51.918ZM210.125 55.1406V49.4922C210.125 49.0859 210.059 48.7383 209.926 48.4492C209.793 48.1523 209.586 47.9219 209.305 47.7578C209.031 47.5938 208.676 47.5117 208.238 47.5117C207.863 47.5117 207.539 47.5781 207.266 47.7109C206.992 47.8359 206.781 48.0195 206.633 48.2617C206.484 48.4961 206.41 48.7734 206.41 49.0938H203.035C203.035 48.5547 203.16 48.043 203.41 47.5586C203.66 47.0742 204.023 46.6484 204.5 46.2812C204.977 45.9062 205.543 45.6133 206.199 45.4023C206.863 45.1914 207.605 45.0859 208.426 45.0859C209.41 45.0859 210.285 45.25 211.051 45.5781C211.816 45.9062 212.418 46.3984 212.855 47.0547C213.301 47.7109 213.523 48.5312 213.523 49.5156V54.9414C213.523 55.6367 213.566 56.207 213.652 56.6523C213.738 57.0898 213.863 57.4727 214.027 57.8008V58H210.617C210.453 57.6562 210.328 57.2266 210.242 56.7109C210.164 56.1875 210.125 55.6641 210.125 55.1406ZM210.57 50.2773L210.594 52.1875H208.707C208.262 52.1875 207.875 52.2383 207.547 52.3398C207.219 52.4414 206.949 52.5859 206.738 52.7734C206.527 52.9531 206.371 53.1641 206.27 53.4062C206.176 53.6484 206.129 53.9141 206.129 54.2031C206.129 54.4922 206.195 54.7539 206.328 54.9883C206.461 55.2148 206.652 55.3945 206.902 55.5273C207.152 55.6523 207.445 55.7148 207.781 55.7148C208.289 55.7148 208.73 55.6133 209.105 55.4102C209.48 55.207 209.77 54.957 209.973 54.6602C210.184 54.3633 210.293 54.082 210.301 53.8164L211.191 55.2461C211.066 55.5664 210.895 55.8984 210.676 56.2422C210.465 56.5859 210.195 56.9102 209.867 57.2148C209.539 57.5117 209.145 57.7578 208.684 57.9531C208.223 58.1406 207.676 58.2344 207.043 58.2344C206.238 58.2344 205.508 58.0742 204.852 57.7539C204.203 57.4258 203.688 56.9766 203.305 56.4062C202.93 55.8281 202.742 55.1719 202.742 54.4375C202.742 53.7734 202.867 53.1836 203.117 52.668C203.367 52.1523 203.734 51.7188 204.219 51.3672C204.711 51.0078 205.324 50.7383 206.059 50.5586C206.793 50.3711 207.645 50.2773 208.613 50.2773H210.57ZM219.688 40V58H216.301V40H219.688ZM229.332 54.4961C229.332 54.2539 229.262 54.0352 229.121 53.8398C228.98 53.6445 228.719 53.4648 228.336 53.3008C227.961 53.1289 227.418 52.9727 226.707 52.832C226.066 52.6914 225.469 52.5156 224.914 52.3047C224.367 52.0859 223.891 51.8242 223.484 51.5195C223.086 51.2148 222.773 50.8555 222.547 50.4414C222.32 50.0195 222.207 49.5391 222.207 49C222.207 48.4688 222.32 47.9688 222.547 47.5C222.781 47.0312 223.113 46.6172 223.543 46.2578C223.98 45.8906 224.512 45.6055 225.137 45.4023C225.77 45.1914 226.48 45.0859 227.27 45.0859C228.371 45.0859 229.316 45.2617 230.105 45.6133C230.902 45.9648 231.512 46.4492 231.934 47.0664C232.363 47.6758 232.578 48.3711 232.578 49.1523H229.203C229.203 48.8242 229.133 48.5312 228.992 48.2734C228.859 48.0078 228.648 47.8008 228.359 47.6523C228.078 47.4961 227.711 47.418 227.258 47.418C226.883 47.418 226.559 47.4844 226.285 47.6172C226.012 47.7422 225.801 47.9141 225.652 48.1328C225.512 48.3438 225.441 48.5781 225.441 48.8359C225.441 49.0312 225.48 49.207 225.559 49.3633C225.645 49.5117 225.781 49.6484 225.969 49.7734C226.156 49.8984 226.398 50.0156 226.695 50.125C227 50.2266 227.375 50.3203 227.82 50.4062C228.734 50.5938 229.551 50.8398 230.27 51.1445C230.988 51.4414 231.559 51.8477 231.98 52.3633C232.402 52.8711 232.613 53.5391 232.613 54.3672C232.613 54.9297 232.488 55.4453 232.238 55.9141C231.988 56.3828 231.629 56.793 231.16 57.1445C230.691 57.4883 230.129 57.7578 229.473 57.9531C228.824 58.1406 228.094 58.2344 227.281 58.2344C226.102 58.2344 225.102 58.0234 224.281 57.6016C223.469 57.1797 222.852 56.6445 222.43 55.9961C222.016 55.3398 221.809 54.668 221.809 53.9805H225.008C225.023 54.4414 225.141 54.8125 225.359 55.0938C225.586 55.375 225.871 55.5781 226.215 55.7031C226.566 55.8281 226.945 55.8906 227.352 55.8906C227.789 55.8906 228.152 55.832 228.441 55.7148C228.73 55.5898 228.949 55.4258 229.098 55.2227C229.254 55.0117 229.332 54.7695 229.332 54.4961Z" fill="#008080" fill-opacity="0.5"/>
<path d="M107.205 107.146H99.251V101.191H107.205C108.289 101.191 109.168 101.008 109.842 100.642C110.516 100.275 111.006 99.77 111.314 99.1255C111.636 98.4663 111.797 97.7266 111.797 96.9062C111.797 96.0273 111.636 95.2144 111.314 94.4673C111.006 93.7202 110.516 93.1196 109.842 92.6655C109.168 92.1968 108.289 91.9624 107.205 91.9624H102.151V118H94.439V86.0078H107.205C109.769 86.0078 111.973 86.4766 113.819 87.4141C115.679 88.3516 117.107 89.6406 118.104 91.2812C119.1 92.9072 119.598 94.7676 119.598 96.8623C119.598 98.9277 119.1 100.729 118.104 102.268C117.107 103.806 115.679 105.007 113.819 105.871C111.973 106.721 109.769 107.146 107.205 107.146ZM130.87 100.114V118H123.465V94.2256H130.386L130.87 100.114ZM137.901 94.0498L137.769 100.927C137.476 100.898 137.081 100.861 136.583 100.817C136.084 100.773 135.667 100.751 135.33 100.751C134.466 100.751 133.719 100.854 133.089 101.059C132.474 101.25 131.961 101.542 131.551 101.938C131.155 102.319 130.862 102.802 130.672 103.388C130.496 103.974 130.416 104.655 130.43 105.432L129.09 104.553C129.09 102.956 129.244 101.506 129.551 100.202C129.874 98.8838 130.328 97.7485 130.914 96.7964C131.5 95.8296 132.21 95.0898 133.045 94.5771C133.88 94.0498 134.817 93.7861 135.857 93.7861C136.224 93.7861 136.583 93.8081 136.934 93.8521C137.3 93.896 137.623 93.9619 137.901 94.0498ZM138.736 106.354V105.893C138.736 104.15 138.985 102.546 139.483 101.081C139.981 99.6016 140.713 98.3198 141.68 97.2358C142.647 96.1519 143.841 95.3096 145.262 94.709C146.683 94.0938 148.323 93.7861 150.184 93.7861C152.059 93.7861 153.707 94.0938 155.127 94.709C156.563 95.3096 157.764 96.1519 158.731 97.2358C159.698 98.3198 160.43 99.6016 160.928 101.081C161.426 102.546 161.675 104.15 161.675 105.893V106.354C161.675 108.083 161.426 109.687 160.928 111.167C160.43 112.631 159.698 113.913 158.731 115.012C157.764 116.096 156.57 116.938 155.149 117.539C153.729 118.139 152.088 118.439 150.228 118.439C148.367 118.439 146.719 118.139 145.284 117.539C143.848 116.938 142.647 116.096 141.68 115.012C140.713 113.913 139.981 112.631 139.483 111.167C138.985 109.687 138.736 108.083 138.736 106.354ZM146.141 105.893V106.354C146.141 107.248 146.207 108.083 146.338 108.859C146.47 109.636 146.69 110.317 146.998 110.903C147.305 111.474 147.723 111.921 148.25 112.243C148.777 112.565 149.437 112.727 150.228 112.727C151.004 112.727 151.648 112.565 152.161 112.243C152.688 111.921 153.106 111.474 153.414 110.903C153.721 110.317 153.941 109.636 154.073 108.859C154.205 108.083 154.271 107.248 154.271 106.354V105.893C154.271 105.029 154.205 104.216 154.073 103.454C153.941 102.678 153.721 101.997 153.414 101.411C153.106 100.81 152.688 100.341 152.161 100.004C151.634 99.6675 150.975 99.499 150.184 99.499C149.407 99.499 148.755 99.6675 148.228 100.004C147.715 100.341 147.305 100.81 146.998 101.411C146.69 101.997 146.47 102.678 146.338 103.454C146.207 104.216 146.141 105.029 146.141 105.893ZM165.521 94.2256H172.947V118.769C172.947 120.673 172.581 122.277 171.849 123.581C171.116 124.899 170.069 125.896 168.707 126.569C167.344 127.258 165.718 127.602 163.829 127.602C163.199 127.602 162.62 127.573 162.093 127.514C161.551 127.47 160.958 127.375 160.313 127.229V121.625C160.694 121.684 161.045 121.728 161.368 121.757C161.69 121.801 162.042 121.823 162.422 121.823C163.096 121.823 163.66 121.713 164.114 121.494C164.568 121.274 164.913 120.937 165.147 120.483C165.396 120.029 165.521 119.458 165.521 118.769V94.2256ZM164.971 88.0952C164.971 87.0405 165.352 86.1763 166.114 85.5024C166.875 84.8286 167.864 84.4917 169.08 84.4917C170.296 84.4917 171.285 84.8286 172.046 85.5024C172.808 86.1763 173.189 87.0405 173.189 88.0952C173.189 89.1499 172.808 90.0142 172.046 90.688C171.285 91.3618 170.296 91.6987 169.08 91.6987C167.864 91.6987 166.875 91.3618 166.114 90.688C165.352 90.0142 164.971 89.1499 164.971 88.0952ZM188.658 118.439C186.724 118.439 184.996 118.139 183.472 117.539C181.949 116.923 180.66 116.081 179.605 115.012C178.565 113.942 177.767 112.712 177.21 111.32C176.668 109.929 176.397 108.457 176.397 106.904V106.069C176.397 104.326 176.639 102.714 177.122 101.235C177.605 99.7407 178.323 98.437 179.275 97.3237C180.228 96.2104 181.421 95.3462 182.857 94.731C184.292 94.1011 185.962 93.7861 187.867 93.7861C189.551 93.7861 191.06 94.0571 192.393 94.5991C193.726 95.1411 194.854 95.9175 195.777 96.9282C196.714 97.939 197.425 99.1621 197.908 100.598C198.406 102.033 198.655 103.645 198.655 105.432V108.442H179.231V103.806H191.426V103.234C191.441 102.443 191.302 101.77 191.009 101.213C190.73 100.656 190.32 100.231 189.778 99.9385C189.236 99.6455 188.577 99.499 187.801 99.499C186.995 99.499 186.329 99.6748 185.801 100.026C185.289 100.378 184.886 100.861 184.593 101.477C184.314 102.077 184.117 102.773 184 103.564C183.882 104.355 183.824 105.19 183.824 106.069V106.904C183.824 107.783 183.941 108.581 184.175 109.299C184.424 110.017 184.776 110.632 185.23 111.145C185.699 111.643 186.255 112.031 186.9 112.309C187.559 112.587 188.306 112.727 189.141 112.727C190.152 112.727 191.148 112.536 192.129 112.155C193.111 111.774 193.953 111.145 194.656 110.266L198.018 114.265C197.535 114.953 196.846 115.62 195.953 116.264C195.074 116.909 194.019 117.436 192.789 117.846C191.558 118.242 190.181 118.439 188.658 118.439ZM211.707 112.727C212.396 112.727 212.981 112.602 213.465 112.353C213.963 112.089 214.336 111.723 214.585 111.254C214.849 110.771 214.974 110.192 214.959 109.519H221.924C221.939 111.306 221.5 112.873 220.606 114.221C219.727 115.554 218.526 116.594 217.002 117.341C215.494 118.073 213.787 118.439 211.883 118.439C210.022 118.439 208.396 118.139 207.005 117.539C205.613 116.923 204.449 116.074 203.511 114.99C202.588 113.891 201.893 112.609 201.424 111.145C200.97 109.68 200.743 108.09 200.743 106.376V105.871C200.743 104.157 200.97 102.568 201.424 101.103C201.893 99.6235 202.588 98.3418 203.511 97.2578C204.449 96.1592 205.606 95.3096 206.983 94.709C208.375 94.0938 209.993 93.7861 211.839 93.7861C213.816 93.7861 215.56 94.1597 217.068 94.9067C218.592 95.6538 219.786 96.7378 220.65 98.1587C221.514 99.5796 221.939 101.301 221.924 103.322H214.959C214.974 102.604 214.864 101.96 214.629 101.389C214.395 100.817 214.029 100.363 213.531 100.026C213.047 99.6748 212.425 99.499 211.663 99.499C210.901 99.499 210.286 99.6675 209.817 100.004C209.349 100.341 208.99 100.81 208.741 101.411C208.506 101.997 208.345 102.67 208.257 103.432C208.184 104.194 208.147 105.007 208.147 105.871V106.376C208.147 107.255 208.184 108.083 208.257 108.859C208.345 109.621 208.514 110.295 208.763 110.881C209.012 111.452 209.371 111.906 209.839 112.243C210.308 112.565 210.931 112.727 211.707 112.727ZM237.613 94.2256V99.3672H223.287V94.2256H237.613ZM226.297 88.3149H233.702V110.244C233.702 110.874 233.775 111.364 233.921 111.716C234.068 112.053 234.317 112.294 234.668 112.441C235.035 112.573 235.518 112.639 236.119 112.639C236.543 112.639 236.895 112.631 237.173 112.617C237.452 112.587 237.715 112.551 237.964 112.507V117.802C237.334 118.007 236.675 118.161 235.987 118.264C235.298 118.381 234.566 118.439 233.79 118.439C232.208 118.439 230.853 118.19 229.725 117.692C228.611 117.194 227.762 116.411 227.176 115.341C226.59 114.272 226.297 112.88 226.297 111.167V88.3149ZM264.881 107.146H256.927V101.191H264.881C265.965 101.191 266.844 101.008 267.518 100.642C268.191 100.275 268.682 99.77 268.99 99.1255C269.312 98.4663 269.473 97.7266 269.473 96.9062C269.473 96.0273 269.312 95.2144 268.99 94.4673C268.682 93.7202 268.191 93.1196 267.518 92.6655C266.844 92.1968 265.965 91.9624 264.881 91.9624H259.827V118H252.115V86.0078H264.881C267.444 86.0078 269.649 86.4766 271.495 87.4141C273.355 88.3516 274.783 89.6406 275.779 91.2812C276.775 92.9072 277.273 94.7676 277.273 96.8623C277.273 98.9277 276.775 100.729 275.779 102.268C274.783 103.806 273.355 105.007 271.495 105.871C269.649 106.721 267.444 107.146 264.881 107.146ZM288.326 84.25V118H280.921V84.25H288.326ZM287.447 105.3L285.711 105.344C285.711 103.674 285.916 102.136 286.326 100.729C286.736 99.3232 287.322 98.1001 288.084 97.0601C288.846 96.02 289.761 95.2144 290.831 94.6431C291.9 94.0718 293.086 93.7861 294.39 93.7861C295.562 93.7861 296.631 93.9546 297.598 94.2915C298.58 94.6284 299.422 95.1704 300.125 95.9175C300.843 96.6646 301.392 97.6387 301.773 98.8398C302.168 100.041 302.366 101.506 302.366 103.234V118H294.917V103.19C294.917 102.224 294.778 101.477 294.5 100.949C294.236 100.407 293.855 100.034 293.357 99.8286C292.859 99.6089 292.251 99.499 291.534 99.499C290.669 99.499 289.966 99.6455 289.424 99.9385C288.882 100.231 288.465 100.642 288.172 101.169C287.894 101.682 287.703 102.29 287.601 102.993C287.498 103.696 287.447 104.465 287.447 105.3ZM314.297 94.2256V118H306.871V94.2256H314.297ZM306.431 88.0952C306.431 87.0405 306.812 86.1763 307.574 85.5024C308.335 84.8286 309.324 84.4917 310.54 84.4917C311.756 84.4917 312.745 84.8286 313.506 85.5024C314.268 86.1763 314.649 87.0405 314.649 88.0952C314.649 89.1499 314.268 90.0142 313.506 90.688C312.745 91.3618 311.756 91.6987 310.54 91.6987C309.324 91.6987 308.335 91.3618 307.574 90.688C306.812 90.0142 306.431 89.1499 306.431 88.0952ZM326.69 84.25V118H319.263V84.25H326.69ZM330.337 106.354V105.893C330.337 104.15 330.586 102.546 331.084 101.081C331.583 99.6016 332.315 98.3198 333.282 97.2358C334.249 96.1519 335.442 95.3096 336.863 94.709C338.284 94.0938 339.925 93.7861 341.785 93.7861C343.66 93.7861 345.308 94.0938 346.729 94.709C348.165 95.3096 349.366 96.1519 350.333 97.2358C351.299 98.3198 352.032 99.6016 352.53 101.081C353.028 102.546 353.277 104.15 353.277 105.893V106.354C353.277 108.083 353.028 109.687 352.53 111.167C352.032 112.631 351.299 113.913 350.333 115.012C349.366 116.096 348.172 116.938 346.751 117.539C345.33 118.139 343.689 118.439 341.829 118.439C339.969 118.439 338.321 118.139 336.885 117.539C335.45 116.938 334.249 116.096 333.282 115.012C332.315 113.913 331.583 112.631 331.084 111.167C330.586 109.687 330.337 108.083 330.337 106.354ZM337.742 105.893V106.354C337.742 107.248 337.808 108.083 337.94 108.859C338.072 109.636 338.292 110.317 338.599 110.903C338.907 111.474 339.324 111.921 339.852 112.243C340.379 112.565 341.038 112.727 341.829 112.727C342.605 112.727 343.25 112.565 343.763 112.243C344.29 111.921 344.708 111.474 345.015 110.903C345.323 110.317 345.542 109.636 345.674 108.859C345.806 108.083 345.872 107.248 345.872 106.354V105.893C345.872 105.029 345.806 104.216 345.674 103.454C345.542 102.678 345.323 101.997 345.015 101.411C344.708 100.81 344.29 100.341 343.763 100.004C343.235 99.6675 342.576 99.499 341.785 99.499C341.009 99.499 340.357 99.6675 339.83 100.004C339.317 100.341 338.907 100.81 338.599 101.411C338.292 101.997 338.072 102.678 337.94 103.454C337.808 104.216 337.742 105.029 337.742 105.893ZM369.031 111.32C369.031 110.91 368.892 110.559 368.614 110.266C368.35 109.958 367.881 109.68 367.208 109.431C366.534 109.167 365.589 108.903 364.373 108.64C363.216 108.391 362.125 108.061 361.099 107.651C360.088 107.241 359.202 106.743 358.44 106.157C357.679 105.571 357.078 104.875 356.639 104.069C356.214 103.264 356.001 102.341 356.001 101.301C356.001 100.29 356.214 99.3379 356.639 98.4443C357.078 97.5361 357.715 96.7378 358.55 96.0493C359.4 95.3462 360.433 94.7969 361.648 94.4014C362.864 93.9912 364.249 93.7861 365.801 93.7861C367.94 93.7861 369.786 94.1157 371.338 94.7749C372.891 95.4194 374.085 96.3276 374.92 97.4995C375.77 98.6567 376.194 99.9971 376.194 101.521H368.79C368.79 100.92 368.687 100.407 368.482 99.9824C368.292 99.5576 367.977 99.2354 367.537 99.0156C367.098 98.7812 366.512 98.6641 365.779 98.6641C365.267 98.6641 364.798 98.7593 364.373 98.9497C363.963 99.1401 363.633 99.4038 363.384 99.7407C363.135 100.078 363.011 100.473 363.011 100.927C363.011 101.25 363.084 101.542 363.23 101.806C363.392 102.055 363.633 102.29 363.956 102.509C364.278 102.714 364.688 102.905 365.186 103.081C365.684 103.242 366.285 103.388 366.988 103.52C368.584 103.813 370.079 104.23 371.47 104.772C372.862 105.314 373.99 106.083 374.854 107.08C375.733 108.076 376.172 109.416 376.172 111.101C376.172 112.155 375.931 113.129 375.447 114.023C374.964 114.902 374.268 115.678 373.36 116.352C372.452 117.011 371.36 117.524 370.086 117.89C368.812 118.256 367.376 118.439 365.779 118.439C363.509 118.439 361.59 118.037 360.022 117.231C358.455 116.411 357.269 115.385 356.463 114.155C355.672 112.91 355.276 111.65 355.276 110.375H362.176C362.205 111.108 362.381 111.708 362.703 112.177C363.04 112.646 363.487 112.99 364.043 113.21C364.6 113.43 365.245 113.54 365.977 113.54C366.651 113.54 367.208 113.444 367.647 113.254C368.101 113.063 368.445 112.807 368.68 112.485C368.914 112.148 369.031 111.76 369.031 111.32ZM378.721 106.354V105.893C378.721 104.15 378.97 102.546 379.468 101.081C379.966 99.6016 380.699 98.3198 381.666 97.2358C382.632 96.1519 383.826 95.3096 385.247 94.709C386.668 94.0938 388.309 93.7861 390.169 93.7861C392.044 93.7861 393.692 94.0938 395.113 94.709C396.548 95.3096 397.75 96.1519 398.716 97.2358C399.683 98.3198 400.416 99.6016 400.914 101.081C401.412 102.546 401.661 104.15 401.661 105.893V106.354C401.661 108.083 401.412 109.687 400.914 111.167C400.416 112.631 399.683 113.913 398.716 115.012C397.75 116.096 396.556 116.938 395.135 117.539C393.714 118.139 392.073 118.439 390.213 118.439C388.353 118.439 386.705 118.139 385.269 117.539C383.833 116.938 382.632 116.096 381.666 115.012C380.699 113.913 379.966 112.631 379.468 111.167C378.97 109.687 378.721 108.083 378.721 106.354ZM386.126 105.893V106.354C386.126 107.248 386.192 108.083 386.324 108.859C386.456 109.636 386.675 110.317 386.983 110.903C387.291 111.474 387.708 111.921 388.235 112.243C388.763 112.565 389.422 112.727 390.213 112.727C390.989 112.727 391.634 112.565 392.146 112.243C392.674 111.921 393.091 111.474 393.399 110.903C393.707 110.317 393.926 109.636 394.058 108.859C394.19 108.083 394.256 107.248 394.256 106.354V105.893C394.256 105.029 394.19 104.216 394.058 103.454C393.926 102.678 393.707 101.997 393.399 101.411C393.091 100.81 392.674 100.341 392.146 100.004C391.619 99.6675 390.96 99.499 390.169 99.499C389.393 99.499 388.741 99.6675 388.213 100.004C387.701 100.341 387.291 100.81 386.983 101.411C386.675 101.997 386.456 102.678 386.324 103.454C386.192 104.216 386.126 105.029 386.126 105.893ZM412.427 98.7959V127.141H405.022V94.2256H411.922L412.427 98.7959ZM427.017 105.827V106.289C427.017 108.017 426.819 109.621 426.424 111.101C426.028 112.58 425.442 113.869 424.666 114.968C423.89 116.066 422.923 116.923 421.766 117.539C420.623 118.139 419.297 118.439 417.789 118.439C416.368 118.439 415.145 118.125 414.119 117.495C413.094 116.865 412.237 115.993 411.548 114.88C410.86 113.767 410.303 112.492 409.878 111.057C409.454 109.621 409.117 108.105 408.868 106.508V105.915C409.117 104.201 409.454 102.612 409.878 101.147C410.303 99.6675 410.86 98.3784 411.548 97.2798C412.237 96.1812 413.086 95.3242 414.097 94.709C415.123 94.0938 416.346 93.7861 417.767 93.7861C419.275 93.7861 420.601 94.0718 421.744 94.6431C422.901 95.2144 423.868 96.0347 424.644 97.104C425.435 98.1587 426.028 99.4258 426.424 100.905C426.819 102.385 427.017 104.025 427.017 105.827ZM419.612 106.289V105.827C419.612 104.904 419.546 104.062 419.415 103.3C419.283 102.524 419.07 101.85 418.777 101.279C418.499 100.708 418.125 100.268 417.657 99.9604C417.188 99.6528 416.609 99.499 415.921 99.499C415.13 99.499 414.463 99.6235 413.921 99.8726C413.394 100.107 412.969 100.473 412.647 100.971C412.339 101.455 412.12 102.062 411.988 102.795C411.871 103.513 411.819 104.355 411.834 105.322V107.124C411.805 108.237 411.915 109.218 412.164 110.068C412.413 110.903 412.845 111.555 413.46 112.023C414.075 112.492 414.91 112.727 415.965 112.727C416.668 112.727 417.254 112.565 417.723 112.243C418.191 111.906 418.565 111.445 418.843 110.859C419.122 110.258 419.319 109.57 419.437 108.793C419.554 108.017 419.612 107.182 419.612 106.289ZM437.564 84.25V118H430.159V84.25H437.564ZM436.685 105.3L434.949 105.344C434.949 103.674 435.154 102.136 435.564 100.729C435.975 99.3232 436.561 98.1001 437.322 97.0601C438.084 96.02 439 95.2144 440.069 94.6431C441.138 94.0718 442.325 93.7861 443.628 93.7861C444.8 93.7861 445.87 93.9546 446.836 94.2915C447.818 94.6284 448.66 95.1704 449.363 95.9175C450.081 96.6646 450.63 97.6387 451.011 98.8398C451.407 100.041 451.604 101.506 451.604 103.234V118H444.156V103.19C444.156 102.224 444.017 101.477 443.738 100.949C443.475 100.407 443.094 100.034 442.596 99.8286C442.098 99.6089 441.49 99.499 440.772 99.499C439.908 99.499 439.205 99.6455 438.663 99.9385C438.121 100.231 437.703 100.642 437.41 101.169C437.132 101.682 436.941 102.29 436.839 102.993C436.736 103.696 436.685 104.465 436.685 105.3ZM463.008 115.209L469.161 94.2256H477.115L467.557 121.538C467.352 122.138 467.081 122.783 466.744 123.471C466.407 124.174 465.945 124.841 465.359 125.471C464.773 126.101 464.019 126.613 463.096 127.009C462.188 127.404 461.06 127.602 459.712 127.602C458.995 127.602 458.467 127.565 458.13 127.492C457.808 127.434 457.31 127.324 456.636 127.163V121.867C456.827 121.867 456.988 121.867 457.12 121.867C457.266 121.867 457.427 121.867 457.603 121.867C458.394 121.867 459.024 121.787 459.493 121.625C459.976 121.464 460.342 121.23 460.591 120.922C460.855 120.615 461.06 120.241 461.207 119.802L463.008 115.209ZM461.448 94.2256L466.128 110.859L466.941 118.703H461.976L453.516 94.2256H461.448Z" fill="#008080"/>
<path d="M1363 15C1363 6.71573 1356.28 0 1348 0H1134V167H1348C1356.28 167 1363 160.284 1363 152V15Z" fill="#FF914A"/>
<path d="M1234.26 106.286H1262.74V111.857H1234.26V106.286ZM1239.96 117.429H1257.04V123H1239.96V117.429ZM1248.5 45C1240.95 45 1233.71 47.9349 1228.37 53.1592C1223.03 58.3834 1220.03 65.469 1220.03 72.8571C1219.84 76.9057 1220.63 80.9412 1222.34 84.6315C1224.05 88.3219 1226.64 91.5616 1229.88 94.0843C1232.73 96.675 1234.26 98.1514 1234.26 100.714H1239.96C1239.96 95.5886 1236.8 92.7193 1233.72 89.9614C1231.06 87.9676 1228.94 85.3658 1227.55 82.3838C1226.15 79.4019 1225.53 76.1308 1225.72 72.8571C1225.72 66.9466 1228.12 61.2781 1232.39 57.0988C1236.67 52.9194 1242.46 50.5714 1248.5 50.5714C1254.54 50.5714 1260.33 52.9194 1264.61 57.0988C1268.88 61.2781 1271.28 66.9466 1271.28 72.8571C1271.47 76.1333 1270.84 79.4059 1269.44 82.388C1268.04 85.3701 1265.92 87.9706 1263.25 89.9614C1260.2 92.7471 1257.04 95.5329 1257.04 100.714H1262.74C1262.74 98.1514 1264.25 96.675 1267.12 94.0564C1270.36 91.5381 1272.94 88.3031 1274.66 84.6176C1276.37 80.9321 1277.16 76.9014 1276.97 72.8571C1276.97 69.1989 1276.24 65.5765 1274.81 62.1967C1273.37 58.8169 1271.28 55.7459 1268.63 53.1592C1265.99 50.5724 1262.85 48.5205 1259.4 47.1205C1255.94 45.7205 1252.24 45 1248.5 45Z" fill="white"/>
</svg>
