<svg width="1363" height="167" viewBox="0 0 1363 167" fill="none" xmlns="http://www.w3.org/2000/svg">
<rect width="1363" height="167" rx="15" fill="white"/>
<path d="M0 15C0 6.71573 6.71573 0 15 0H37V167H15C6.71573 167 0 160.284 0 152V15Z" fill="#FF914A" fill-opacity="0.5"/>
<path d="M100.168 51.918H95.8203V49.1758H100.168C100.84 49.1758 101.387 49.0664 101.809 48.8477C102.23 48.6211 102.539 48.3086 102.734 47.9102C102.93 47.5117 103.027 47.0625 103.027 46.5625C103.027 46.0547 102.93 45.582 102.734 45.1445C102.539 44.707 102.23 44.3555 101.809 44.0898C101.387 43.8242 100.84 43.6914 100.168 43.6914H97.0391V58H93.5234V40.9375H100.168C101.504 40.9375 102.648 41.1797 103.602 41.6641C104.562 42.1406 105.297 42.8008 105.805 43.6445C106.312 44.4883 106.566 45.4531 106.566 46.5391C106.566 47.6406 106.312 48.5938 105.805 49.3984C105.297 50.2031 104.562 50.8242 103.602 51.2617C102.648 51.6992 101.504 51.918 100.168 51.918ZM116.281 54.9648V45.3203H119.656V58H116.48L116.281 54.9648ZM116.656 52.3633L117.652 52.3398C117.652 53.1836 117.555 53.9688 117.359 54.6953C117.164 55.4141 116.871 56.0391 116.48 56.5703C116.09 57.0938 115.598 57.5039 115.004 57.8008C114.41 58.0898 113.711 58.2344 112.906 58.2344C112.289 58.2344 111.719 58.1484 111.195 57.9766C110.68 57.7969 110.234 57.5195 109.859 57.1445C109.492 56.7617 109.203 56.2734 108.992 55.6797C108.789 55.0781 108.688 54.3555 108.688 53.5117V45.3203H112.062V53.5352C112.062 53.9102 112.105 54.2266 112.191 54.4844C112.285 54.7422 112.414 54.9531 112.578 55.1172C112.742 55.2812 112.934 55.3984 113.152 55.4688C113.379 55.5391 113.629 55.5742 113.902 55.5742C114.598 55.5742 115.145 55.4336 115.543 55.1523C115.949 54.8711 116.234 54.4883 116.398 54.0039C116.57 53.5117 116.656 52.9648 116.656 52.3633ZM125.609 48.0859V58H122.234V45.3203H125.41L125.609 48.0859ZM129.43 45.2383L129.371 48.3672C129.207 48.3438 129.008 48.3242 128.773 48.3086C128.547 48.2852 128.34 48.2734 128.152 48.2734C127.676 48.2734 127.262 48.3359 126.91 48.4609C126.566 48.5781 126.277 48.7539 126.043 48.9883C125.816 49.2227 125.645 49.5078 125.527 49.8438C125.418 50.1797 125.355 50.5625 125.34 50.9922L124.66 50.7812C124.66 49.9609 124.742 49.207 124.906 48.5195C125.07 47.8242 125.309 47.2188 125.621 46.7031C125.941 46.1875 126.332 45.7891 126.793 45.5078C127.254 45.2266 127.781 45.0859 128.375 45.0859C128.562 45.0859 128.754 45.1016 128.949 45.1328C129.145 45.1562 129.305 45.1914 129.43 45.2383ZM134.398 48.0859V58H131.023V45.3203H134.199L134.398 48.0859ZM138.219 45.2383L138.16 48.3672C137.996 48.3438 137.797 48.3242 137.562 48.3086C137.336 48.2852 137.129 48.2734 136.941 48.2734C136.465 48.2734 136.051 48.3359 135.699 48.4609C135.355 48.5781 135.066 48.7539 134.832 48.9883C134.605 49.2227 134.434 49.5078 134.316 49.8438C134.207 50.1797 134.145 50.5625 134.129 50.9922L133.449 50.7812C133.449 49.9609 133.531 49.207 133.695 48.5195C133.859 47.8242 134.098 47.2188 134.41 46.7031C134.73 46.1875 135.121 45.7891 135.582 45.5078C136.043 45.2266 136.57 45.0859 137.164 45.0859C137.352 45.0859 137.543 45.1016 137.738 45.1328C137.934 45.1562 138.094 45.1914 138.219 45.2383ZM144.348 58H140.949V44.1953C140.949 43.2344 141.137 42.4258 141.512 41.7695C141.895 41.1055 142.43 40.6055 143.117 40.2695C143.812 39.9258 144.637 39.7539 145.59 39.7539C145.902 39.7539 146.203 39.7773 146.492 39.8242C146.781 39.8633 147.062 39.9141 147.336 39.9766L147.301 42.5195C147.152 42.4805 146.996 42.4531 146.832 42.4375C146.668 42.4219 146.477 42.4141 146.258 42.4141C145.852 42.4141 145.504 42.4844 145.215 42.625C144.934 42.7578 144.719 42.957 144.57 43.2227C144.422 43.4883 144.348 43.8125 144.348 44.1953V58ZM146.879 45.3203V47.7109H139.062V45.3203H146.879ZM154.203 58.2344C153.219 58.2344 152.336 58.0781 151.555 57.7656C150.773 57.4453 150.109 57.0039 149.562 56.4414C149.023 55.8789 148.609 55.2266 148.32 54.4844C148.031 53.7344 147.887 52.9375 147.887 52.0938V51.625C147.887 50.6641 148.023 49.7852 148.297 48.9883C148.57 48.1914 148.961 47.5 149.469 46.9141C149.984 46.3281 150.609 45.8789 151.344 45.5664C152.078 45.2461 152.906 45.0859 153.828 45.0859C154.727 45.0859 155.523 45.2344 156.219 45.5312C156.914 45.8281 157.496 46.25 157.965 46.7969C158.441 47.3438 158.801 48 159.043 48.7656C159.285 49.5234 159.406 50.3672 159.406 51.2969V52.7031H149.328V50.4531H156.09V50.1953C156.09 49.7266 156.004 49.3086 155.832 48.9414C155.668 48.5664 155.418 48.2695 155.082 48.0508C154.746 47.832 154.316 47.7227 153.793 47.7227C153.348 47.7227 152.965 47.8203 152.645 48.0156C152.324 48.2109 152.062 48.4844 151.859 48.8359C151.664 49.1875 151.516 49.6016 151.414 50.0781C151.32 50.5469 151.273 51.0625 151.273 51.625V52.0938C151.273 52.6016 151.344 53.0703 151.484 53.5C151.633 53.9297 151.84 54.3008 152.105 54.6133C152.379 54.9258 152.707 55.168 153.09 55.3398C153.48 55.5117 153.922 55.5977 154.414 55.5977C155.023 55.5977 155.59 55.4805 156.113 55.2461C156.645 55.0039 157.102 54.6406 157.484 54.1562L159.125 55.9375C158.859 56.3203 158.496 56.6875 158.035 57.0391C157.582 57.3906 157.035 57.6797 156.395 57.9062C155.754 58.125 155.023 58.2344 154.203 58.2344ZM166.566 55.5977C166.98 55.5977 167.348 55.5195 167.668 55.3633C167.988 55.1992 168.238 54.9727 168.418 54.6836C168.605 54.3867 168.703 54.0391 168.711 53.6406H171.887C171.879 54.5312 171.641 55.3242 171.172 56.0195C170.703 56.707 170.074 57.25 169.285 57.6484C168.496 58.0391 167.613 58.2344 166.637 58.2344C165.652 58.2344 164.793 58.0703 164.059 57.7422C163.332 57.4141 162.727 56.9609 162.242 56.3828C161.758 55.7969 161.395 55.1172 161.152 54.3438C160.91 53.5625 160.789 52.7266 160.789 51.8359V51.4961C160.789 50.5977 160.91 49.7617 161.152 48.9883C161.395 48.207 161.758 47.5273 162.242 46.9492C162.727 46.3633 163.332 45.9062 164.059 45.5781C164.785 45.25 165.637 45.0859 166.613 45.0859C167.652 45.0859 168.562 45.2852 169.344 45.6836C170.133 46.082 170.75 46.6523 171.195 47.3945C171.648 48.1289 171.879 49 171.887 50.0078H168.711C168.703 49.5859 168.613 49.2031 168.441 48.8594C168.277 48.5156 168.035 48.2422 167.715 48.0391C167.402 47.8281 167.016 47.7227 166.555 47.7227C166.062 47.7227 165.66 47.8281 165.348 48.0391C165.035 48.2422 164.793 48.5234 164.621 48.8828C164.449 49.2344 164.328 49.6367 164.258 50.0898C164.195 50.5352 164.164 51.0039 164.164 51.4961V51.8359C164.164 52.3281 164.195 52.8008 164.258 53.2539C164.32 53.707 164.438 54.1094 164.609 54.4609C164.789 54.8125 165.035 55.0898 165.348 55.293C165.66 55.4961 166.066 55.5977 166.566 55.5977ZM180.055 45.3203V47.7109H172.672V45.3203H180.055ZM174.5 42.1914H177.875V54.1797C177.875 54.5469 177.922 54.8281 178.016 55.0234C178.117 55.2188 178.266 55.3555 178.461 55.4336C178.656 55.5039 178.902 55.5391 179.199 55.5391C179.41 55.5391 179.598 55.5312 179.762 55.5156C179.934 55.4922 180.078 55.4688 180.195 55.4453L180.207 57.9297C179.918 58.0234 179.605 58.0977 179.27 58.1523C178.934 58.207 178.562 58.2344 178.156 58.2344C177.414 58.2344 176.766 58.1133 176.211 57.8711C175.664 57.6211 175.242 57.2227 174.945 56.6758C174.648 56.1289 174.5 55.4102 174.5 54.5195V42.1914ZM194.809 51.918H190.461V49.1758H194.809C195.48 49.1758 196.027 49.0664 196.449 48.8477C196.871 48.6211 197.18 48.3086 197.375 47.9102C197.57 47.5117 197.668 47.0625 197.668 46.5625C197.668 46.0547 197.57 45.582 197.375 45.1445C197.18 44.707 196.871 44.3555 196.449 44.0898C196.027 43.8242 195.48 43.6914 194.809 43.6914H191.68V58H188.164V40.9375H194.809C196.145 40.9375 197.289 41.1797 198.242 41.6641C199.203 42.1406 199.938 42.8008 200.445 43.6445C200.953 44.4883 201.207 45.4531 201.207 46.5391C201.207 47.6406 200.953 48.5938 200.445 49.3984C199.938 50.2031 199.203 50.8242 198.242 51.2617C197.289 51.6992 196.145 51.918 194.809 51.918ZM210.125 55.1406V49.4922C210.125 49.0859 210.059 48.7383 209.926 48.4492C209.793 48.1523 209.586 47.9219 209.305 47.7578C209.031 47.5938 208.676 47.5117 208.238 47.5117C207.863 47.5117 207.539 47.5781 207.266 47.7109C206.992 47.8359 206.781 48.0195 206.633 48.2617C206.484 48.4961 206.41 48.7734 206.41 49.0938H203.035C203.035 48.5547 203.16 48.043 203.41 47.5586C203.66 47.0742 204.023 46.6484 204.5 46.2812C204.977 45.9062 205.543 45.6133 206.199 45.4023C206.863 45.1914 207.605 45.0859 208.426 45.0859C209.41 45.0859 210.285 45.25 211.051 45.5781C211.816 45.9062 212.418 46.3984 212.855 47.0547C213.301 47.7109 213.523 48.5312 213.523 49.5156V54.9414C213.523 55.6367 213.566 56.207 213.652 56.6523C213.738 57.0898 213.863 57.4727 214.027 57.8008V58H210.617C210.453 57.6562 210.328 57.2266 210.242 56.7109C210.164 56.1875 210.125 55.6641 210.125 55.1406ZM210.57 50.2773L210.594 52.1875H208.707C208.262 52.1875 207.875 52.2383 207.547 52.3398C207.219 52.4414 206.949 52.5859 206.738 52.7734C206.527 52.9531 206.371 53.1641 206.27 53.4062C206.176 53.6484 206.129 53.9141 206.129 54.2031C206.129 54.4922 206.195 54.7539 206.328 54.9883C206.461 55.2148 206.652 55.3945 206.902 55.5273C207.152 55.6523 207.445 55.7148 207.781 55.7148C208.289 55.7148 208.73 55.6133 209.105 55.4102C209.48 55.207 209.77 54.957 209.973 54.6602C210.184 54.3633 210.293 54.082 210.301 53.8164L211.191 55.2461C211.066 55.5664 210.895 55.8984 210.676 56.2422C210.465 56.5859 210.195 56.9102 209.867 57.2148C209.539 57.5117 209.145 57.7578 208.684 57.9531C208.223 58.1406 207.676 58.2344 207.043 58.2344C206.238 58.2344 205.508 58.0742 204.852 57.7539C204.203 57.4258 203.688 56.9766 203.305 56.4062C202.93 55.8281 202.742 55.1719 202.742 54.4375C202.742 53.7734 202.867 53.1836 203.117 52.668C203.367 52.1523 203.734 51.7188 204.219 51.3672C204.711 51.0078 205.324 50.7383 206.059 50.5586C206.793 50.3711 207.645 50.2773 208.613 50.2773H210.57ZM219.688 40V58H216.301V40H219.688ZM229.332 54.4961C229.332 54.2539 229.262 54.0352 229.121 53.8398C228.98 53.6445 228.719 53.4648 228.336 53.3008C227.961 53.1289 227.418 52.9727 226.707 52.832C226.066 52.6914 225.469 52.5156 224.914 52.3047C224.367 52.0859 223.891 51.8242 223.484 51.5195C223.086 51.2148 222.773 50.8555 222.547 50.4414C222.32 50.0195 222.207 49.5391 222.207 49C222.207 48.4688 222.32 47.9688 222.547 47.5C222.781 47.0312 223.113 46.6172 223.543 46.2578C223.98 45.8906 224.512 45.6055 225.137 45.4023C225.77 45.1914 226.48 45.0859 227.27 45.0859C228.371 45.0859 229.316 45.2617 230.105 45.6133C230.902 45.9648 231.512 46.4492 231.934 47.0664C232.363 47.6758 232.578 48.3711 232.578 49.1523H229.203C229.203 48.8242 229.133 48.5312 228.992 48.2734C228.859 48.0078 228.648 47.8008 228.359 47.6523C228.078 47.4961 227.711 47.418 227.258 47.418C226.883 47.418 226.559 47.4844 226.285 47.6172C226.012 47.7422 225.801 47.9141 225.652 48.1328C225.512 48.3438 225.441 48.5781 225.441 48.8359C225.441 49.0312 225.48 49.207 225.559 49.3633C225.645 49.5117 225.781 49.6484 225.969 49.7734C226.156 49.8984 226.398 50.0156 226.695 50.125C227 50.2266 227.375 50.3203 227.82 50.4062C228.734 50.5938 229.551 50.8398 230.27 51.1445C230.988 51.4414 231.559 51.8477 231.98 52.3633C232.402 52.8711 232.613 53.5391 232.613 54.3672C232.613 54.9297 232.488 55.4453 232.238 55.9141C231.988 56.3828 231.629 56.793 231.16 57.1445C230.691 57.4883 230.129 57.7578 229.473 57.9531C228.824 58.1406 228.094 58.2344 227.281 58.2344C226.102 58.2344 225.102 58.0234 224.281 57.6016C223.469 57.1797 222.852 56.6445 222.43 55.9961C222.016 55.3398 221.809 54.668 221.809 53.9805H225.008C225.023 54.4414 225.141 54.8125 225.359 55.0938C225.586 55.375 225.871 55.5781 226.215 55.7031C226.566 55.8281 226.945 55.8906 227.352 55.8906C227.789 55.8906 228.152 55.832 228.441 55.7148C228.73 55.5898 228.949 55.4258 229.098 55.2227C229.254 55.0117 229.332 54.7695 229.332 54.4961Z" fill="#008080" fill-opacity="0.5"/>
<path d="M109.93 86.0078V118H102.217V86.0078H109.93ZM119.554 86.0078V91.9624H92.813V86.0078H119.554ZM132.012 118.439C130.079 118.439 128.35 118.139 126.827 117.539C125.303 116.923 124.014 116.081 122.959 115.012C121.919 113.942 121.121 112.712 120.564 111.32C120.022 109.929 119.751 108.457 119.751 106.904V106.069C119.751 104.326 119.993 102.714 120.477 101.235C120.96 99.7407 121.678 98.437 122.63 97.3237C123.582 96.2104 124.776 95.3462 126.211 94.731C127.647 94.1011 129.317 93.7861 131.221 93.7861C132.906 93.7861 134.415 94.0571 135.748 94.5991C137.081 95.1411 138.208 95.9175 139.131 96.9282C140.069 97.939 140.779 99.1621 141.263 100.598C141.761 102.033 142.01 103.645 142.01 105.432V108.442H122.586V103.806H134.781V103.234C134.795 102.443 134.656 101.77 134.363 101.213C134.085 100.656 133.675 100.231 133.133 99.9385C132.591 99.6455 131.932 99.499 131.155 99.499C130.35 99.499 129.683 99.6748 129.156 100.026C128.643 100.378 128.24 100.861 127.947 101.477C127.669 102.077 127.471 102.773 127.354 103.564C127.237 104.355 127.178 105.19 127.178 106.069V106.904C127.178 107.783 127.295 108.581 127.53 109.299C127.779 110.017 128.13 110.632 128.584 111.145C129.053 111.643 129.61 112.031 130.254 112.309C130.914 112.587 131.661 112.727 132.496 112.727C133.506 112.727 134.502 112.536 135.484 112.155C136.465 111.774 137.308 111.145 138.011 110.266L141.373 114.265C140.889 114.953 140.201 115.62 139.307 116.264C138.428 116.909 137.374 117.436 136.143 117.846C134.913 118.242 133.536 118.439 132.012 118.439ZM155.062 112.727C155.75 112.727 156.336 112.602 156.819 112.353C157.317 112.089 157.691 111.723 157.94 111.254C158.204 110.771 158.328 110.192 158.313 109.519H165.279C165.293 111.306 164.854 112.873 163.96 114.221C163.082 115.554 161.88 116.594 160.357 117.341C158.848 118.073 157.142 118.439 155.237 118.439C153.377 118.439 151.751 118.139 150.359 117.539C148.968 116.923 147.803 116.074 146.866 114.99C145.943 113.891 145.247 112.609 144.778 111.145C144.324 109.68 144.097 108.09 144.097 106.376V105.871C144.097 104.157 144.324 102.568 144.778 101.103C145.247 99.6235 145.943 98.3418 146.866 97.2578C147.803 96.1592 148.96 95.3096 150.337 94.709C151.729 94.0938 153.348 93.7861 155.193 93.7861C157.171 93.7861 158.914 94.1597 160.423 94.9067C161.946 95.6538 163.14 96.7378 164.004 98.1587C164.869 99.5796 165.293 101.301 165.279 103.322H158.313C158.328 102.604 158.218 101.96 157.984 101.389C157.75 100.817 157.383 100.363 156.885 100.026C156.402 99.6748 155.779 99.499 155.018 99.499C154.256 99.499 153.641 99.6675 153.172 100.004C152.703 100.341 152.344 100.81 152.095 101.411C151.861 101.997 151.7 102.67 151.612 103.432C151.539 104.194 151.502 105.007 151.502 105.871V106.376C151.502 107.255 151.539 108.083 151.612 108.859C151.7 109.621 151.868 110.295 152.117 110.881C152.366 111.452 152.725 111.906 153.194 112.243C153.663 112.565 154.285 112.727 155.062 112.727ZM175.694 84.25V118H168.289V84.25H175.694ZM174.815 105.3L173.079 105.344C173.079 103.674 173.284 102.136 173.694 100.729C174.104 99.3232 174.69 98.1001 175.452 97.0601C176.214 96.02 177.129 95.2144 178.199 94.6431C179.268 94.0718 180.455 93.7861 181.758 93.7861C182.93 93.7861 184 93.9546 184.966 94.2915C185.948 94.6284 186.79 95.1704 187.493 95.9175C188.211 96.6646 188.76 97.6387 189.141 98.8398C189.537 100.041 189.734 101.506 189.734 103.234V118H182.286V103.19C182.286 102.224 182.146 101.477 181.868 100.949C181.604 100.407 181.224 100.034 180.726 99.8286C180.228 99.6089 179.62 99.499 178.902 99.499C178.038 99.499 177.334 99.6455 176.792 99.9385C176.25 100.231 175.833 100.642 175.54 101.169C175.262 101.682 175.071 102.29 174.969 102.993C174.866 103.696 174.815 104.465 174.815 105.3ZM221.88 109.497C221.88 108.999 221.807 108.552 221.661 108.156C221.514 107.746 221.243 107.365 220.848 107.014C220.452 106.662 219.881 106.311 219.134 105.959C218.401 105.593 217.435 105.212 216.233 104.816C214.827 104.348 213.472 103.82 212.168 103.234C210.865 102.634 209.7 101.938 208.675 101.147C207.649 100.341 206.836 99.4038 206.236 98.3345C205.635 97.2505 205.335 95.9907 205.335 94.5552C205.335 93.1782 205.643 91.9404 206.258 90.8418C206.873 89.7285 207.73 88.7837 208.829 88.0073C209.942 87.2163 211.246 86.6157 212.74 86.2056C214.234 85.7808 215.867 85.5684 217.64 85.5684C219.983 85.5684 222.049 85.9785 223.836 86.7988C225.638 87.6045 227.044 88.7544 228.055 90.2485C229.08 91.728 229.593 93.4785 229.593 95.5H221.924C221.924 94.6943 221.756 93.9839 221.419 93.3687C221.097 92.7534 220.606 92.27 219.947 91.9185C219.288 91.5669 218.46 91.3911 217.464 91.3911C216.497 91.3911 215.684 91.5376 215.025 91.8306C214.366 92.1235 213.868 92.519 213.531 93.0171C213.194 93.5005 213.025 94.0352 213.025 94.6211C213.025 95.1045 213.157 95.5439 213.421 95.9395C213.699 96.3203 214.087 96.6792 214.585 97.0161C215.098 97.353 215.713 97.6753 216.431 97.9829C217.164 98.2905 217.984 98.5908 218.892 98.8838C220.591 99.4258 222.1 100.034 223.418 100.708C224.751 101.367 225.872 102.121 226.78 102.971C227.703 103.806 228.399 104.758 228.868 105.827C229.351 106.896 229.593 108.105 229.593 109.453C229.593 110.888 229.314 112.163 228.758 113.276C228.201 114.389 227.403 115.334 226.363 116.11C225.323 116.872 224.078 117.451 222.627 117.846C221.177 118.242 219.559 118.439 217.771 118.439C216.131 118.439 214.512 118.234 212.916 117.824C211.333 117.399 209.898 116.755 208.609 115.891C207.32 115.012 206.287 113.891 205.511 112.529C204.749 111.152 204.368 109.519 204.368 107.629H212.103C212.103 108.566 212.227 109.357 212.476 110.002C212.725 110.646 213.091 111.167 213.575 111.562C214.058 111.943 214.651 112.221 215.354 112.397C216.058 112.558 216.863 112.639 217.771 112.639C218.753 112.639 219.544 112.5 220.145 112.221C220.745 111.928 221.185 111.547 221.463 111.079C221.741 110.595 221.88 110.068 221.88 109.497ZM245.743 94.2256V99.3672H231.417V94.2256H245.743ZM234.427 88.3149H241.832V110.244C241.832 110.874 241.905 111.364 242.051 111.716C242.198 112.053 242.447 112.294 242.798 112.441C243.165 112.573 243.648 112.639 244.249 112.639C244.673 112.639 245.025 112.631 245.303 112.617C245.582 112.587 245.845 112.551 246.094 112.507V117.802C245.464 118.007 244.805 118.161 244.117 118.264C243.428 118.381 242.696 118.439 241.919 118.439C240.337 118.439 238.982 118.19 237.854 117.692C236.741 117.194 235.892 116.411 235.306 115.341C234.72 114.272 234.427 112.88 234.427 111.167V88.3149ZM261.036 112.023V102.224C261.036 101.55 260.94 100.971 260.75 100.488C260.56 100.004 260.259 99.6309 259.849 99.3672C259.439 99.0889 258.89 98.9497 258.201 98.9497C257.645 98.9497 257.168 99.0449 256.773 99.2354C256.377 99.4258 256.077 99.7114 255.872 100.092C255.667 100.473 255.564 100.957 255.564 101.542H248.16C248.16 100.444 248.401 99.4258 248.885 98.4883C249.383 97.5361 250.086 96.7085 250.994 96.0054C251.917 95.3022 253.016 94.7603 254.29 94.3794C255.579 93.9839 257.015 93.7861 258.597 93.7861C260.486 93.7861 262.171 94.1011 263.65 94.731C265.145 95.3608 266.324 96.3057 267.188 97.5654C268.052 98.8105 268.484 100.378 268.484 102.268V112.001C268.484 113.554 268.572 114.733 268.748 115.539C268.924 116.33 269.173 117.026 269.495 117.626V118H262.068C261.717 117.268 261.453 116.374 261.277 115.319C261.116 114.25 261.036 113.151 261.036 112.023ZM261.937 103.476L261.98 107.431H258.707C258.018 107.431 257.432 107.526 256.949 107.717C256.48 107.907 256.099 108.171 255.806 108.508C255.528 108.83 255.323 109.196 255.191 109.606C255.074 110.017 255.015 110.449 255.015 110.903C255.015 111.342 255.118 111.738 255.323 112.089C255.542 112.426 255.835 112.69 256.202 112.88C256.568 113.071 256.978 113.166 257.432 113.166C258.252 113.166 258.948 113.012 259.52 112.705C260.105 112.382 260.552 111.994 260.86 111.54C261.167 111.086 261.321 110.661 261.321 110.266L262.947 113.298C262.654 113.884 262.317 114.477 261.937 115.078C261.57 115.678 261.109 116.235 260.552 116.748C260.01 117.246 259.344 117.656 258.553 117.978C257.762 118.286 256.802 118.439 255.674 118.439C254.209 118.439 252.862 118.139 251.631 117.539C250.416 116.938 249.441 116.103 248.709 115.034C247.977 113.95 247.61 112.705 247.61 111.298C247.61 110.068 247.83 108.969 248.27 108.002C248.724 107.036 249.405 106.215 250.313 105.542C251.221 104.868 252.378 104.355 253.785 104.003C255.191 103.652 256.846 103.476 258.75 103.476H261.937ZM282.635 112.727C283.323 112.727 283.909 112.602 284.393 112.353C284.891 112.089 285.264 111.723 285.513 111.254C285.777 110.771 285.901 110.192 285.887 109.519H292.852C292.867 111.306 292.427 112.873 291.534 114.221C290.655 115.554 289.454 116.594 287.93 117.341C286.421 118.073 284.715 118.439 282.811 118.439C280.95 118.439 279.324 118.139 277.933 117.539C276.541 116.923 275.376 116.074 274.439 114.99C273.516 113.891 272.82 112.609 272.352 111.145C271.897 109.68 271.67 108.09 271.67 106.376V105.871C271.67 104.157 271.897 102.568 272.352 101.103C272.82 99.6235 273.516 98.3418 274.439 97.2578C275.376 96.1592 276.534 95.3096 277.911 94.709C279.302 94.0938 280.921 93.7861 282.767 93.7861C284.744 93.7861 286.487 94.1597 287.996 94.9067C289.52 95.6538 290.713 96.7378 291.578 98.1587C292.442 99.5796 292.867 101.301 292.852 103.322H285.887C285.901 102.604 285.792 101.96 285.557 101.389C285.323 100.817 284.957 100.363 284.458 100.026C283.975 99.6748 283.353 99.499 282.591 99.499C281.829 99.499 281.214 99.6675 280.745 100.004C280.276 100.341 279.917 100.81 279.668 101.411C279.434 101.997 279.273 102.67 279.185 103.432C279.112 104.194 279.075 105.007 279.075 105.871V106.376C279.075 107.255 279.112 108.083 279.185 108.859C279.273 109.621 279.441 110.295 279.69 110.881C279.939 111.452 280.298 111.906 280.767 112.243C281.236 112.565 281.858 112.727 282.635 112.727ZM303.487 84.228V118H296.082V84.228H303.487ZM318.692 94.2256L308.365 106.333L302.959 111.738L299.729 107.036L304.234 101.169L309.815 94.2256H318.692ZM310.76 118L304.41 107.167L309.881 103.278L319.241 118H310.76Z" fill="#008080"/>
<path d="M1363 15C1363 6.71573 1356.28 0 1348 0H1134V167H1348C1356.28 167 1363 160.284 1363 152V15Z" fill="#FF914A"/>
<path fill-rule="evenodd" clip-rule="evenodd" d="M1218.5 55C1218.37 55 1218.24 55.0527 1218.15 55.1464C1218.05 55.2402 1218 55.3674 1218 55.5V111.5C1218 111.633 1218.05 111.76 1218.15 111.854C1218.24 111.947 1218.37 112 1218.5 112H1278C1278.13 112 1278.26 111.947 1278.35 111.854C1278.45 111.76 1278.5 111.633 1278.5 111.5V66C1278.5 65.8674 1278.45 65.7402 1278.35 65.6464C1278.26 65.5527 1278.13 65.5 1278 65.5H1248.25C1247.36 65.5 1246.52 65.1045 1245.95 64.4206L1238.09 55H1218.5ZM1213.9 50.9038C1215.12 49.6848 1216.78 49 1218.5 49H1239.5C1240.39 49 1241.23 49.3955 1241.8 50.0794L1249.66 59.5H1278C1279.72 59.5 1281.38 60.1848 1282.6 61.4038C1283.82 62.6228 1284.5 64.2761 1284.5 66V111.5C1284.5 113.224 1283.82 114.877 1282.6 116.096C1281.38 117.315 1279.72 118 1278 118H1218.5C1216.78 118 1215.12 117.315 1213.9 116.096C1212.68 114.877 1212 113.224 1212 111.5V55.5C1212 53.7761 1212.68 52.1228 1213.9 50.9038Z" fill="white"/>
<path fill-rule="evenodd" clip-rule="evenodd" d="M1243.72 77.5251C1245.09 78.892 1245.09 81.108 1243.72 82.4749L1237.45 88.75L1243.72 95.0251C1245.09 96.392 1245.09 98.608 1243.72 99.9749C1242.36 101.342 1240.14 101.342 1238.78 99.9749L1230.03 91.2249C1228.66 89.858 1228.66 87.642 1230.03 86.2751L1238.78 77.5251C1240.14 76.1583 1242.36 76.1583 1243.72 77.5251Z" fill="white"/>
<path fill-rule="evenodd" clip-rule="evenodd" d="M1252.03 99.9749C1250.66 98.608 1250.66 96.392 1252.03 95.0251L1258.3 88.75L1252.03 82.4749C1250.66 81.108 1250.66 78.892 1252.03 77.5251C1253.39 76.1583 1255.61 76.1583 1256.97 77.5251L1265.72 86.2751C1267.09 87.642 1267.09 89.858 1265.72 91.2249L1256.97 99.9749C1255.61 101.342 1253.39 101.342 1252.03 99.9749Z" fill="white"/>
</svg>
