<svg width="1363" height="167" viewBox="0 0 1363 167" fill="none" xmlns="http://www.w3.org/2000/svg">
<rect width="1363" height="167" rx="15" fill="white"/>
<path d="M0 15C0 6.71573 6.71573 0 15 0H37V167H15C6.71573 167 0 160.284 0 152V15Z" fill="#FF914A" fill-opacity="0.5"/>
<path d="M100.168 51.918H95.8203V49.1758H100.168C100.84 49.1758 101.387 49.0664 101.809 48.8477C102.23 48.6211 102.539 48.3086 102.734 47.9102C102.93 47.5117 103.027 47.0625 103.027 46.5625C103.027 46.0547 102.93 45.582 102.734 45.1445C102.539 44.707 102.23 44.3555 101.809 44.0898C101.387 43.8242 100.84 43.6914 100.168 43.6914H97.0391V58H93.5234V40.9375H100.168C101.504 40.9375 102.648 41.1797 103.602 41.6641C104.562 42.1406 105.297 42.8008 105.805 43.6445C106.312 44.4883 106.566 45.4531 106.566 46.5391C106.566 47.6406 106.312 48.5938 105.805 49.3984C105.297 50.2031 104.562 50.8242 103.602 51.2617C102.648 51.6992 101.504 51.918 100.168 51.918ZM116.281 54.9648V45.3203H119.656V58H116.48L116.281 54.9648ZM116.656 52.3633L117.652 52.3398C117.652 53.1836 117.555 53.9688 117.359 54.6953C117.164 55.4141 116.871 56.0391 116.48 56.5703C116.09 57.0938 115.598 57.5039 115.004 57.8008C114.41 58.0898 113.711 58.2344 112.906 58.2344C112.289 58.2344 111.719 58.1484 111.195 57.9766C110.68 57.7969 110.234 57.5195 109.859 57.1445C109.492 56.7617 109.203 56.2734 108.992 55.6797C108.789 55.0781 108.688 54.3555 108.688 53.5117V45.3203H112.062V53.5352C112.062 53.9102 112.105 54.2266 112.191 54.4844C112.285 54.7422 112.414 54.9531 112.578 55.1172C112.742 55.2812 112.934 55.3984 113.152 55.4688C113.379 55.5391 113.629 55.5742 113.902 55.5742C114.598 55.5742 115.145 55.4336 115.543 55.1523C115.949 54.8711 116.234 54.4883 116.398 54.0039C116.57 53.5117 116.656 52.9648 116.656 52.3633ZM125.609 48.0859V58H122.234V45.3203H125.41L125.609 48.0859ZM129.43 45.2383L129.371 48.3672C129.207 48.3438 129.008 48.3242 128.773 48.3086C128.547 48.2852 128.34 48.2734 128.152 48.2734C127.676 48.2734 127.262 48.3359 126.91 48.4609C126.566 48.5781 126.277 48.7539 126.043 48.9883C125.816 49.2227 125.645 49.5078 125.527 49.8438C125.418 50.1797 125.355 50.5625 125.34 50.9922L124.66 50.7812C124.66 49.9609 124.742 49.207 124.906 48.5195C125.07 47.8242 125.309 47.2188 125.621 46.7031C125.941 46.1875 126.332 45.7891 126.793 45.5078C127.254 45.2266 127.781 45.0859 128.375 45.0859C128.562 45.0859 128.754 45.1016 128.949 45.1328C129.145 45.1562 129.305 45.1914 129.43 45.2383ZM134.398 48.0859V58H131.023V45.3203H134.199L134.398 48.0859ZM138.219 45.2383L138.16 48.3672C137.996 48.3438 137.797 48.3242 137.562 48.3086C137.336 48.2852 137.129 48.2734 136.941 48.2734C136.465 48.2734 136.051 48.3359 135.699 48.4609C135.355 48.5781 135.066 48.7539 134.832 48.9883C134.605 49.2227 134.434 49.5078 134.316 49.8438C134.207 50.1797 134.145 50.5625 134.129 50.9922L133.449 50.7812C133.449 49.9609 133.531 49.207 133.695 48.5195C133.859 47.8242 134.098 47.2188 134.41 46.7031C134.73 46.1875 135.121 45.7891 135.582 45.5078C136.043 45.2266 136.57 45.0859 137.164 45.0859C137.352 45.0859 137.543 45.1016 137.738 45.1328C137.934 45.1562 138.094 45.1914 138.219 45.2383ZM144.348 58H140.949V44.1953C140.949 43.2344 141.137 42.4258 141.512 41.7695C141.895 41.1055 142.43 40.6055 143.117 40.2695C143.812 39.9258 144.637 39.7539 145.59 39.7539C145.902 39.7539 146.203 39.7773 146.492 39.8242C146.781 39.8633 147.062 39.9141 147.336 39.9766L147.301 42.5195C147.152 42.4805 146.996 42.4531 146.832 42.4375C146.668 42.4219 146.477 42.4141 146.258 42.4141C145.852 42.4141 145.504 42.4844 145.215 42.625C144.934 42.7578 144.719 42.957 144.57 43.2227C144.422 43.4883 144.348 43.8125 144.348 44.1953V58ZM146.879 45.3203V47.7109H139.062V45.3203H146.879ZM154.203 58.2344C153.219 58.2344 152.336 58.0781 151.555 57.7656C150.773 57.4453 150.109 57.0039 149.562 56.4414C149.023 55.8789 148.609 55.2266 148.32 54.4844C148.031 53.7344 147.887 52.9375 147.887 52.0938V51.625C147.887 50.6641 148.023 49.7852 148.297 48.9883C148.57 48.1914 148.961 47.5 149.469 46.9141C149.984 46.3281 150.609 45.8789 151.344 45.5664C152.078 45.2461 152.906 45.0859 153.828 45.0859C154.727 45.0859 155.523 45.2344 156.219 45.5312C156.914 45.8281 157.496 46.25 157.965 46.7969C158.441 47.3438 158.801 48 159.043 48.7656C159.285 49.5234 159.406 50.3672 159.406 51.2969V52.7031H149.328V50.4531H156.09V50.1953C156.09 49.7266 156.004 49.3086 155.832 48.9414C155.668 48.5664 155.418 48.2695 155.082 48.0508C154.746 47.832 154.316 47.7227 153.793 47.7227C153.348 47.7227 152.965 47.8203 152.645 48.0156C152.324 48.2109 152.062 48.4844 151.859 48.8359C151.664 49.1875 151.516 49.6016 151.414 50.0781C151.32 50.5469 151.273 51.0625 151.273 51.625V52.0938C151.273 52.6016 151.344 53.0703 151.484 53.5C151.633 53.9297 151.84 54.3008 152.105 54.6133C152.379 54.9258 152.707 55.168 153.09 55.3398C153.48 55.5117 153.922 55.5977 154.414 55.5977C155.023 55.5977 155.59 55.4805 156.113 55.2461C156.645 55.0039 157.102 54.6406 157.484 54.1562L159.125 55.9375C158.859 56.3203 158.496 56.6875 158.035 57.0391C157.582 57.3906 157.035 57.6797 156.395 57.9062C155.754 58.125 155.023 58.2344 154.203 58.2344ZM166.566 55.5977C166.98 55.5977 167.348 55.5195 167.668 55.3633C167.988 55.1992 168.238 54.9727 168.418 54.6836C168.605 54.3867 168.703 54.0391 168.711 53.6406H171.887C171.879 54.5312 171.641 55.3242 171.172 56.0195C170.703 56.707 170.074 57.25 169.285 57.6484C168.496 58.0391 167.613 58.2344 166.637 58.2344C165.652 58.2344 164.793 58.0703 164.059 57.7422C163.332 57.4141 162.727 56.9609 162.242 56.3828C161.758 55.7969 161.395 55.1172 161.152 54.3438C160.91 53.5625 160.789 52.7266 160.789 51.8359V51.4961C160.789 50.5977 160.91 49.7617 161.152 48.9883C161.395 48.207 161.758 47.5273 162.242 46.9492C162.727 46.3633 163.332 45.9062 164.059 45.5781C164.785 45.25 165.637 45.0859 166.613 45.0859C167.652 45.0859 168.562 45.2852 169.344 45.6836C170.133 46.082 170.75 46.6523 171.195 47.3945C171.648 48.1289 171.879 49 171.887 50.0078H168.711C168.703 49.5859 168.613 49.2031 168.441 48.8594C168.277 48.5156 168.035 48.2422 167.715 48.0391C167.402 47.8281 167.016 47.7227 166.555 47.7227C166.062 47.7227 165.66 47.8281 165.348 48.0391C165.035 48.2422 164.793 48.5234 164.621 48.8828C164.449 49.2344 164.328 49.6367 164.258 50.0898C164.195 50.5352 164.164 51.0039 164.164 51.4961V51.8359C164.164 52.3281 164.195 52.8008 164.258 53.2539C164.32 53.707 164.438 54.1094 164.609 54.4609C164.789 54.8125 165.035 55.0898 165.348 55.293C165.66 55.4961 166.066 55.5977 166.566 55.5977ZM180.055 45.3203V47.7109H172.672V45.3203H180.055ZM174.5 42.1914H177.875V54.1797C177.875 54.5469 177.922 54.8281 178.016 55.0234C178.117 55.2188 178.266 55.3555 178.461 55.4336C178.656 55.5039 178.902 55.5391 179.199 55.5391C179.41 55.5391 179.598 55.5312 179.762 55.5156C179.934 55.4922 180.078 55.4688 180.195 55.4453L180.207 57.9297C179.918 58.0234 179.605 58.0977 179.27 58.1523C178.934 58.207 178.562 58.2344 178.156 58.2344C177.414 58.2344 176.766 58.1133 176.211 57.8711C175.664 57.6211 175.242 57.2227 174.945 56.6758C174.648 56.1289 174.5 55.4102 174.5 54.5195V42.1914ZM194.809 51.918H190.461V49.1758H194.809C195.48 49.1758 196.027 49.0664 196.449 48.8477C196.871 48.6211 197.18 48.3086 197.375 47.9102C197.57 47.5117 197.668 47.0625 197.668 46.5625C197.668 46.0547 197.57 45.582 197.375 45.1445C197.18 44.707 196.871 44.3555 196.449 44.0898C196.027 43.8242 195.48 43.6914 194.809 43.6914H191.68V58H188.164V40.9375H194.809C196.145 40.9375 197.289 41.1797 198.242 41.6641C199.203 42.1406 199.938 42.8008 200.445 43.6445C200.953 44.4883 201.207 45.4531 201.207 46.5391C201.207 47.6406 200.953 48.5938 200.445 49.3984C199.938 50.2031 199.203 50.8242 198.242 51.2617C197.289 51.6992 196.145 51.918 194.809 51.918ZM210.125 55.1406V49.4922C210.125 49.0859 210.059 48.7383 209.926 48.4492C209.793 48.1523 209.586 47.9219 209.305 47.7578C209.031 47.5938 208.676 47.5117 208.238 47.5117C207.863 47.5117 207.539 47.5781 207.266 47.7109C206.992 47.8359 206.781 48.0195 206.633 48.2617C206.484 48.4961 206.41 48.7734 206.41 49.0938H203.035C203.035 48.5547 203.16 48.043 203.41 47.5586C203.66 47.0742 204.023 46.6484 204.5 46.2812C204.977 45.9062 205.543 45.6133 206.199 45.4023C206.863 45.1914 207.605 45.0859 208.426 45.0859C209.41 45.0859 210.285 45.25 211.051 45.5781C211.816 45.9062 212.418 46.3984 212.855 47.0547C213.301 47.7109 213.523 48.5312 213.523 49.5156V54.9414C213.523 55.6367 213.566 56.207 213.652 56.6523C213.738 57.0898 213.863 57.4727 214.027 57.8008V58H210.617C210.453 57.6562 210.328 57.2266 210.242 56.7109C210.164 56.1875 210.125 55.6641 210.125 55.1406ZM210.57 50.2773L210.594 52.1875H208.707C208.262 52.1875 207.875 52.2383 207.547 52.3398C207.219 52.4414 206.949 52.5859 206.738 52.7734C206.527 52.9531 206.371 53.1641 206.27 53.4062C206.176 53.6484 206.129 53.9141 206.129 54.2031C206.129 54.4922 206.195 54.7539 206.328 54.9883C206.461 55.2148 206.652 55.3945 206.902 55.5273C207.152 55.6523 207.445 55.7148 207.781 55.7148C208.289 55.7148 208.73 55.6133 209.105 55.4102C209.48 55.207 209.77 54.957 209.973 54.6602C210.184 54.3633 210.293 54.082 210.301 53.8164L211.191 55.2461C211.066 55.5664 210.895 55.8984 210.676 56.2422C210.465 56.5859 210.195 56.9102 209.867 57.2148C209.539 57.5117 209.145 57.7578 208.684 57.9531C208.223 58.1406 207.676 58.2344 207.043 58.2344C206.238 58.2344 205.508 58.0742 204.852 57.7539C204.203 57.4258 203.688 56.9766 203.305 56.4062C202.93 55.8281 202.742 55.1719 202.742 54.4375C202.742 53.7734 202.867 53.1836 203.117 52.668C203.367 52.1523 203.734 51.7188 204.219 51.3672C204.711 51.0078 205.324 50.7383 206.059 50.5586C206.793 50.3711 207.645 50.2773 208.613 50.2773H210.57ZM219.688 40V58H216.301V40H219.688ZM229.332 54.4961C229.332 54.2539 229.262 54.0352 229.121 53.8398C228.98 53.6445 228.719 53.4648 228.336 53.3008C227.961 53.1289 227.418 52.9727 226.707 52.832C226.066 52.6914 225.469 52.5156 224.914 52.3047C224.367 52.0859 223.891 51.8242 223.484 51.5195C223.086 51.2148 222.773 50.8555 222.547 50.4414C222.32 50.0195 222.207 49.5391 222.207 49C222.207 48.4688 222.32 47.9688 222.547 47.5C222.781 47.0312 223.113 46.6172 223.543 46.2578C223.98 45.8906 224.512 45.6055 225.137 45.4023C225.77 45.1914 226.48 45.0859 227.27 45.0859C228.371 45.0859 229.316 45.2617 230.105 45.6133C230.902 45.9648 231.512 46.4492 231.934 47.0664C232.363 47.6758 232.578 48.3711 232.578 49.1523H229.203C229.203 48.8242 229.133 48.5312 228.992 48.2734C228.859 48.0078 228.648 47.8008 228.359 47.6523C228.078 47.4961 227.711 47.418 227.258 47.418C226.883 47.418 226.559 47.4844 226.285 47.6172C226.012 47.7422 225.801 47.9141 225.652 48.1328C225.512 48.3438 225.441 48.5781 225.441 48.8359C225.441 49.0312 225.48 49.207 225.559 49.3633C225.645 49.5117 225.781 49.6484 225.969 49.7734C226.156 49.8984 226.398 50.0156 226.695 50.125C227 50.2266 227.375 50.3203 227.82 50.4062C228.734 50.5938 229.551 50.8398 230.27 51.1445C230.988 51.4414 231.559 51.8477 231.98 52.3633C232.402 52.8711 232.613 53.5391 232.613 54.3672C232.613 54.9297 232.488 55.4453 232.238 55.9141C231.988 56.3828 231.629 56.793 231.16 57.1445C230.691 57.4883 230.129 57.7578 229.473 57.9531C228.824 58.1406 228.094 58.2344 227.281 58.2344C226.102 58.2344 225.102 58.0234 224.281 57.6016C223.469 57.1797 222.852 56.6445 222.43 55.9961C222.016 55.3398 221.809 54.668 221.809 53.9805H225.008C225.023 54.4414 225.141 54.8125 225.359 55.0938C225.586 55.375 225.871 55.5781 226.215 55.7031C226.566 55.8281 226.945 55.8906 227.352 55.8906C227.789 55.8906 228.152 55.832 228.441 55.7148C228.73 55.5898 228.949 55.4258 229.098 55.2227C229.254 55.0117 229.332 54.7695 229.332 54.4961Z" fill="#008080" fill-opacity="0.5"/>
<path d="M101.822 115.1L108.194 86.0078H111.995L114.061 88.4907L107.271 118H103.074L101.822 115.1ZM100.13 86.0078L105.513 115.319L104.129 118H99.2729L92.4834 86.0078H100.13ZM117.554 115.166L122.894 86.0078H130.518L123.729 118H118.895L117.554 115.166ZM114.742 86.0078L121.268 115.275L119.949 118H115.752L108.809 88.4468L110.962 86.0078H114.742ZM141.021 94.2256V118H133.594V94.2256H141.021ZM133.155 88.0952C133.155 87.0405 133.536 86.1763 134.297 85.5024C135.059 84.8286 136.048 84.4917 137.264 84.4917C138.479 84.4917 139.468 84.8286 140.23 85.5024C140.992 86.1763 141.373 87.0405 141.373 88.0952C141.373 89.1499 140.992 90.0142 140.23 90.688C139.468 91.3618 138.479 91.6987 137.264 91.6987C136.048 91.6987 135.059 91.3618 134.297 90.688C133.536 90.0142 133.155 89.1499 133.155 88.0952ZM153.062 100.114V118H145.657V94.2256H152.579L153.062 100.114ZM160.093 94.0498L159.961 100.927C159.668 100.898 159.273 100.861 158.775 100.817C158.277 100.773 157.859 100.751 157.522 100.751C156.658 100.751 155.911 100.854 155.281 101.059C154.666 101.25 154.153 101.542 153.743 101.938C153.348 102.319 153.055 102.802 152.864 103.388C152.688 103.974 152.608 104.655 152.623 105.432L151.282 104.553C151.282 102.956 151.436 101.506 151.744 100.202C152.066 98.8838 152.52 97.7485 153.106 96.7964C153.692 95.8296 154.402 95.0898 155.237 94.5771C156.072 94.0498 157.01 93.7861 158.05 93.7861C158.416 93.7861 158.775 93.8081 159.126 93.8521C159.493 93.896 159.815 93.9619 160.093 94.0498ZM173.716 118.439C171.783 118.439 170.054 118.139 168.531 117.539C167.007 116.923 165.718 116.081 164.664 115.012C163.624 113.942 162.825 112.712 162.269 111.32C161.727 109.929 161.456 108.457 161.456 106.904V106.069C161.456 104.326 161.697 102.714 162.181 101.235C162.664 99.7407 163.382 98.437 164.334 97.3237C165.286 96.2104 166.48 95.3462 167.916 94.731C169.351 94.1011 171.021 93.7861 172.925 93.7861C174.61 93.7861 176.119 94.0571 177.452 94.5991C178.785 95.1411 179.913 95.9175 180.835 96.9282C181.773 97.939 182.483 99.1621 182.967 100.598C183.465 102.033 183.714 103.645 183.714 105.432V108.442H164.29V103.806H176.485V103.234C176.5 102.443 176.36 101.77 176.067 101.213C175.789 100.656 175.379 100.231 174.837 99.9385C174.295 99.6455 173.636 99.499 172.859 99.499C172.054 99.499 171.387 99.6748 170.86 100.026C170.347 100.378 169.944 100.861 169.651 101.477C169.373 102.077 169.175 102.773 169.058 103.564C168.941 104.355 168.882 105.19 168.882 106.069V106.904C168.882 107.783 169 108.581 169.234 109.299C169.483 110.017 169.834 110.632 170.289 111.145C170.757 111.643 171.314 112.031 171.958 112.309C172.618 112.587 173.365 112.727 174.2 112.727C175.21 112.727 176.207 112.536 177.188 112.155C178.169 111.774 179.012 111.145 179.715 110.266L183.077 114.265C182.593 114.953 181.905 115.62 181.011 116.264C180.132 116.909 179.078 117.436 177.847 117.846C176.617 118.242 175.24 118.439 173.716 118.439ZM195.799 118H188.35V92.292C188.35 90.4463 188.724 88.8936 189.471 87.6338C190.218 86.374 191.272 85.4219 192.635 84.7773C193.997 84.1182 195.608 83.7886 197.469 83.7886C198.113 83.7886 198.721 83.8325 199.292 83.9204C199.864 84.0083 200.42 84.1182 200.962 84.25L200.984 89.6992C200.721 89.626 200.45 89.5747 200.171 89.5454C199.893 89.5161 199.549 89.5015 199.139 89.5015C198.421 89.5015 197.813 89.6113 197.315 89.8311C196.817 90.0361 196.436 90.3511 196.172 90.7759C195.923 91.186 195.799 91.6914 195.799 92.292V118ZM200.413 94.2256V99.3672H184.922V94.2256H200.413ZM210.542 100.114V118H203.138V94.2256H210.059L210.542 100.114ZM217.574 94.0498L217.442 100.927C217.149 100.898 216.753 100.861 216.255 100.817C215.757 100.773 215.34 100.751 215.003 100.751C214.139 100.751 213.392 100.854 212.762 101.059C212.146 101.25 211.634 101.542 211.224 101.938C210.828 102.319 210.535 102.802 210.345 103.388C210.169 103.974 210.088 104.655 210.103 105.432L208.763 104.553C208.763 102.956 208.917 101.506 209.224 100.202C209.546 98.8838 210 97.7485 210.586 96.7964C211.172 95.8296 211.883 95.0898 212.718 94.5771C213.553 94.0498 214.49 93.7861 215.53 93.7861C215.896 93.7861 216.255 93.8081 216.607 93.8521C216.973 93.896 217.295 93.9619 217.574 94.0498ZM231.812 112.023V102.224C231.812 101.55 231.717 100.971 231.526 100.488C231.336 100.004 231.036 99.6309 230.625 99.3672C230.215 99.0889 229.666 98.9497 228.978 98.9497C228.421 98.9497 227.945 99.0449 227.549 99.2354C227.154 99.4258 226.854 99.7114 226.648 100.092C226.443 100.473 226.341 100.957 226.341 101.542H218.936C218.936 100.444 219.178 99.4258 219.661 98.4883C220.159 97.5361 220.862 96.7085 221.771 96.0054C222.693 95.3022 223.792 94.7603 225.066 94.3794C226.355 93.9839 227.791 93.7861 229.373 93.7861C231.263 93.7861 232.947 94.1011 234.427 94.731C235.921 95.3608 237.1 96.3057 237.964 97.5654C238.829 98.8105 239.261 100.378 239.261 102.268V112.001C239.261 113.554 239.349 114.733 239.524 115.539C239.7 116.33 239.949 117.026 240.271 117.626V118H232.845C232.493 117.268 232.229 116.374 232.054 115.319C231.893 114.25 231.812 113.151 231.812 112.023ZM232.713 103.476L232.757 107.431H229.483C228.794 107.431 228.208 107.526 227.725 107.717C227.256 107.907 226.875 108.171 226.583 108.508C226.304 108.83 226.099 109.196 225.967 109.606C225.85 110.017 225.792 110.449 225.792 110.903C225.792 111.342 225.894 111.738 226.099 112.089C226.319 112.426 226.612 112.69 226.978 112.88C227.344 113.071 227.754 113.166 228.208 113.166C229.029 113.166 229.725 113.012 230.296 112.705C230.882 112.382 231.329 111.994 231.636 111.54C231.944 111.086 232.098 110.661 232.098 110.266L233.724 113.298C233.431 113.884 233.094 114.477 232.713 115.078C232.347 115.678 231.885 116.235 231.329 116.748C230.787 117.246 230.12 117.656 229.329 117.978C228.538 118.286 227.579 118.439 226.451 118.439C224.986 118.439 223.638 118.139 222.408 117.539C221.192 116.938 220.218 116.103 219.485 115.034C218.753 113.95 218.387 112.705 218.387 111.298C218.387 110.068 218.606 108.969 219.046 108.002C219.5 107.036 220.181 106.215 221.089 105.542C221.998 104.868 223.155 104.355 224.561 104.003C225.967 103.652 227.623 103.476 229.527 103.476H232.713ZM250.84 99.2573V118H243.436V94.2256H250.379L250.84 99.2573ZM249.939 105.3L248.248 105.344C248.248 103.674 248.445 102.136 248.841 100.729C249.236 99.3232 249.822 98.1001 250.599 97.0601C251.375 96.02 252.327 95.2144 253.455 94.6431C254.598 94.0718 255.916 93.7861 257.41 93.7861C258.45 93.7861 259.395 93.9473 260.245 94.2695C261.094 94.5771 261.827 95.0679 262.442 95.7417C263.057 96.4009 263.526 97.2651 263.848 98.3345C264.185 99.3892 264.354 100.656 264.354 102.136V118H256.949V103.081C256.949 102.07 256.832 101.308 256.597 100.795C256.377 100.283 256.055 99.9385 255.63 99.7627C255.206 99.5869 254.686 99.499 254.07 99.499C253.426 99.499 252.847 99.6455 252.334 99.9385C251.822 100.231 251.382 100.642 251.016 101.169C250.665 101.682 250.394 102.29 250.203 102.993C250.027 103.696 249.939 104.465 249.939 105.3ZM263.519 105.3L261.453 105.344C261.453 103.674 261.636 102.136 262.002 100.729C262.383 99.3232 262.947 98.1001 263.694 97.0601C264.456 96.02 265.401 95.2144 266.529 94.6431C267.657 94.0718 268.968 93.7861 270.462 93.7861C271.546 93.7861 272.542 93.9473 273.45 94.2695C274.358 94.5918 275.142 95.1118 275.801 95.8296C276.46 96.5474 276.973 97.4995 277.339 98.686C277.706 99.8579 277.889 101.308 277.889 103.037V118H270.462V103.037C270.462 102.055 270.345 101.315 270.11 100.817C269.891 100.305 269.568 99.9604 269.144 99.7847C268.719 99.5942 268.213 99.499 267.627 99.499C266.924 99.499 266.316 99.6455 265.804 99.9385C265.291 100.231 264.859 100.642 264.507 101.169C264.17 101.682 263.921 102.29 263.76 102.993C263.599 103.696 263.519 104.465 263.519 105.3ZM293.643 118.439C291.709 118.439 289.981 118.139 288.458 117.539C286.934 116.923 285.645 116.081 284.59 115.012C283.55 113.942 282.752 112.712 282.195 111.32C281.653 109.929 281.382 108.457 281.382 106.904V106.069C281.382 104.326 281.624 102.714 282.107 101.235C282.591 99.7407 283.309 98.437 284.261 97.3237C285.213 96.2104 286.407 95.3462 287.842 94.731C289.278 94.1011 290.948 93.7861 292.852 93.7861C294.537 93.7861 296.045 94.0571 297.378 94.5991C298.711 95.1411 299.839 95.9175 300.762 96.9282C301.7 97.939 302.41 99.1621 302.894 100.598C303.392 102.033 303.641 103.645 303.641 105.432V108.442H284.217V103.806H296.412V103.234C296.426 102.443 296.287 101.77 295.994 101.213C295.716 100.656 295.306 100.231 294.764 99.9385C294.222 99.6455 293.562 99.499 292.786 99.499C291.98 99.499 291.314 99.6748 290.787 100.026C290.274 100.378 289.871 100.861 289.578 101.477C289.3 102.077 289.102 102.773 288.985 103.564C288.868 104.355 288.809 105.19 288.809 106.069V106.904C288.809 107.783 288.926 108.581 289.161 109.299C289.41 110.017 289.761 110.632 290.215 111.145C290.684 111.643 291.241 112.031 291.885 112.309C292.544 112.587 293.292 112.727 294.126 112.727C295.137 112.727 296.133 112.536 297.115 112.155C298.096 111.774 298.938 111.145 299.642 110.266L303.003 114.265C302.52 114.953 301.832 115.62 300.938 116.264C300.059 116.909 299.004 117.436 297.774 117.846C296.543 118.242 295.167 118.439 293.643 118.439ZM319.109 111.32C319.109 110.91 318.97 110.559 318.692 110.266C318.428 109.958 317.959 109.68 317.286 109.431C316.612 109.167 315.667 108.903 314.451 108.64C313.294 108.391 312.203 108.061 311.177 107.651C310.167 107.241 309.28 106.743 308.519 106.157C307.757 105.571 307.156 104.875 306.717 104.069C306.292 103.264 306.08 102.341 306.08 101.301C306.08 100.29 306.292 99.3379 306.717 98.4443C307.156 97.5361 307.793 96.7378 308.628 96.0493C309.478 95.3462 310.511 94.7969 311.727 94.4014C312.942 93.9912 314.327 93.7861 315.879 93.7861C318.018 93.7861 319.864 94.1157 321.417 94.7749C322.969 95.4194 324.163 96.3276 324.998 97.4995C325.848 98.6567 326.272 99.9971 326.272 101.521H318.868C318.868 100.92 318.765 100.407 318.56 99.9824C318.37 99.5576 318.055 99.2354 317.615 99.0156C317.176 98.7812 316.59 98.6641 315.857 98.6641C315.345 98.6641 314.876 98.7593 314.451 98.9497C314.041 99.1401 313.711 99.4038 313.462 99.7407C313.213 100.078 313.089 100.473 313.089 100.927C313.089 101.25 313.162 101.542 313.309 101.806C313.47 102.055 313.711 102.29 314.034 102.509C314.356 102.714 314.766 102.905 315.264 103.081C315.762 103.242 316.363 103.388 317.066 103.52C318.663 103.813 320.157 104.23 321.548 104.772C322.94 105.314 324.068 106.083 324.932 107.08C325.811 108.076 326.25 109.416 326.25 111.101C326.25 112.155 326.009 113.129 325.525 114.023C325.042 114.902 324.346 115.678 323.438 116.352C322.53 117.011 321.438 117.524 320.164 117.89C318.89 118.256 317.454 118.439 315.857 118.439C313.587 118.439 311.668 118.037 310.101 117.231C308.533 116.411 307.347 115.385 306.541 114.155C305.75 112.91 305.354 111.65 305.354 110.375H312.254C312.283 111.108 312.459 111.708 312.781 112.177C313.118 112.646 313.565 112.99 314.122 113.21C314.678 113.43 315.323 113.54 316.055 113.54C316.729 113.54 317.286 113.444 317.725 113.254C318.179 113.063 318.523 112.807 318.758 112.485C318.992 112.148 319.109 111.76 319.109 111.32Z" fill="#008080"/>
<path d="M1363 15C1363 6.71573 1356.28 0 1348 0H1134V167H1348C1356.28 167 1363 160.284 1363 152V15Z" fill="#FF914A"/>
<path fill-rule="evenodd" clip-rule="evenodd" d="M1203 49C1203 47.8954 1203.9 47 1205 47H1292.5C1293.6 47 1294.5 47.8954 1294.5 49V118.996C1294.5 120.101 1293.6 120.996 1292.5 120.996H1205C1203.9 120.996 1203 120.101 1203 118.996V49ZM1207 51V55.4945H1290.5V51H1207ZM1290.5 59.4945H1235.44V116.996H1290.5V59.4945ZM1231.44 116.996V59.4945H1207V116.996H1231.44Z" fill="white"/>
<path fill-rule="evenodd" clip-rule="evenodd" d="M1209.97 64.8004C1209.97 63.6958 1210.87 62.8004 1211.97 62.8004H1225.97C1227.08 62.8004 1227.97 63.6958 1227.97 64.8004V84.1956C1227.97 85.3001 1227.08 86.1956 1225.97 86.1956H1211.97C1210.87 86.1956 1209.97 85.3001 1209.97 84.1956V64.8004ZM1213.97 66.8004V82.1956H1223.97V66.8004H1213.97ZM1239.58 65.6964C1239.58 64.5918 1240.47 63.6964 1241.58 63.6964H1284.5C1285.61 63.6964 1286.5 64.5918 1286.5 65.6964V111.905C1286.5 113.01 1285.61 113.905 1284.5 113.905H1241.58C1240.47 113.905 1239.58 113.01 1239.58 111.905V65.6964ZM1243.58 67.6964V109.905H1282.5V67.6964H1243.58ZM1209.81 95.9363C1209.81 94.8317 1210.71 93.9363 1211.81 93.9363H1220.73C1221.84 93.9363 1222.73 94.8317 1222.73 95.9363C1222.73 97.0409 1221.84 97.9363 1220.73 97.9363H1211.81C1210.71 97.9363 1209.81 97.0409 1209.81 95.9363ZM1209.81 102.936C1209.81 101.832 1210.71 100.936 1211.81 100.936H1226.35C1227.46 100.936 1228.35 101.832 1228.35 102.936C1228.35 104.041 1227.46 104.936 1226.35 104.936H1211.81C1210.71 104.936 1209.81 104.041 1209.81 102.936ZM1209.81 109.936C1209.81 108.832 1210.71 107.936 1211.81 107.936H1220.73C1221.84 107.936 1222.73 108.832 1222.73 109.936C1222.73 111.041 1221.84 111.936 1220.73 111.936H1211.81C1210.71 111.936 1209.81 111.041 1209.81 109.936Z" fill="white"/>
</svg>
