<svg width="1368" height="301" viewBox="0 0 1368 301" fill="none" xmlns="http://www.w3.org/2000/svg">
<rect width="1363" height="301" rx="15" fill="white"/>
<path d="M0 15C0 6.71573 6.71573 0 15 0H37V301H15C6.71573 301 0 294.284 0 286V15Z" fill="#FF914A" fill-opacity="0.5"/>
<path d="M110.584 130.733H100.862V123.456H110.584C111.909 123.456 112.983 123.232 113.807 122.784C114.63 122.337 115.23 121.719 115.606 120.931C116 120.125 116.197 119.221 116.197 118.219C116.197 117.145 116 116.151 115.606 115.238C115.23 114.325 114.63 113.591 113.807 113.036C112.983 112.463 111.909 112.176 110.584 112.176H104.407V144H94.981V104.898H110.584C113.717 104.898 116.412 105.471 118.667 106.617C120.941 107.763 122.687 109.339 123.904 111.344C125.122 113.331 125.73 115.605 125.73 118.165C125.73 120.689 125.122 122.892 123.904 124.771C122.687 126.651 120.941 128.119 118.667 129.176C116.412 130.214 113.717 130.733 110.584 130.733ZM147.349 136.937V114.942H156.426V144H147.94L147.349 136.937ZM148.208 131.029L150.572 130.975C150.572 132.927 150.339 134.735 149.874 136.4C149.408 138.047 148.719 139.479 147.806 140.697C146.91 141.914 145.8 142.863 144.476 143.543C143.169 144.206 141.656 144.537 139.937 144.537C138.505 144.537 137.189 144.34 135.989 143.946C134.808 143.535 133.787 142.899 132.928 142.04C132.068 141.162 131.397 140.043 130.914 138.683C130.448 137.304 130.215 135.657 130.215 133.741V114.942H139.266V133.795C139.266 134.439 139.346 134.994 139.507 135.46C139.668 135.925 139.901 136.319 140.206 136.642C140.51 136.946 140.886 137.179 141.333 137.34C141.799 137.483 142.327 137.555 142.918 137.555C144.279 137.555 145.344 137.268 146.114 136.695C146.884 136.122 147.421 135.344 147.725 134.359C148.047 133.374 148.208 132.264 148.208 131.029ZM170.552 122.14V144H161.502V114.942H169.961L170.552 122.14ZM179.146 114.728L178.985 123.133C178.627 123.097 178.143 123.053 177.535 122.999C176.926 122.945 176.416 122.918 176.004 122.918C174.948 122.918 174.035 123.044 173.265 123.294C172.513 123.527 171.886 123.885 171.385 124.369C170.901 124.834 170.543 125.425 170.311 126.141C170.096 126.857 169.997 127.69 170.015 128.639L168.377 127.564C168.377 125.613 168.565 123.84 168.941 122.247C169.335 120.636 169.89 119.248 170.606 118.084C171.322 116.903 172.19 115.999 173.211 115.372C174.231 114.728 175.377 114.405 176.648 114.405C177.096 114.405 177.535 114.432 177.964 114.486C178.412 114.54 178.806 114.62 179.146 114.728ZM191.392 122.14V144H182.342V114.942H190.801L191.392 122.14ZM199.986 114.728L199.825 123.133C199.467 123.097 198.983 123.053 198.375 122.999C197.766 122.945 197.256 122.918 196.844 122.918C195.787 122.918 194.874 123.044 194.104 123.294C193.353 123.527 192.726 123.885 192.225 124.369C191.741 124.834 191.383 125.425 191.15 126.141C190.936 126.857 190.837 127.69 190.855 128.639L189.217 127.564C189.217 125.613 189.405 123.84 189.781 122.247C190.175 120.636 190.73 119.248 191.446 118.084C192.162 116.903 193.03 115.999 194.051 115.372C195.071 114.728 196.217 114.405 197.488 114.405C197.936 114.405 198.375 114.432 198.804 114.486C199.252 114.54 199.646 114.62 199.986 114.728ZM214.783 144H205.679V112.579C205.679 110.323 206.136 108.425 207.049 106.886C207.962 105.346 209.251 104.182 210.916 103.395C212.581 102.589 214.55 102.186 216.824 102.186C217.612 102.186 218.355 102.24 219.053 102.347C219.751 102.455 220.432 102.589 221.094 102.75L221.121 109.41C220.799 109.321 220.468 109.258 220.127 109.222C219.787 109.186 219.367 109.168 218.865 109.168C217.988 109.168 217.245 109.303 216.636 109.571C216.028 109.822 215.562 110.207 215.24 110.726C214.935 111.227 214.783 111.845 214.783 112.579V144ZM220.423 114.942V121.227H201.49V114.942H220.423ZM237.1 144.537C234.737 144.537 232.624 144.17 230.762 143.436C228.9 142.684 227.325 141.655 226.036 140.348C224.764 139.041 223.789 137.537 223.108 135.836C222.446 134.135 222.115 132.336 222.115 130.438V129.417C222.115 127.287 222.41 125.318 223.001 123.509C223.592 121.683 224.469 120.09 225.633 118.729C226.797 117.368 228.256 116.312 230.01 115.56C231.765 114.79 233.806 114.405 236.133 114.405C238.192 114.405 240.036 114.736 241.666 115.399C243.295 116.061 244.673 117.01 245.801 118.246C246.947 119.481 247.815 120.976 248.406 122.73C249.015 124.485 249.319 126.454 249.319 128.639V132.318H225.579V126.651H240.484V125.953C240.502 124.986 240.332 124.163 239.974 123.482C239.633 122.802 239.132 122.283 238.47 121.925C237.807 121.567 237.002 121.388 236.053 121.388C235.068 121.388 234.253 121.603 233.609 122.032C232.982 122.462 232.49 123.053 232.132 123.805C231.792 124.539 231.55 125.389 231.407 126.356C231.264 127.323 231.192 128.343 231.192 129.417V130.438C231.192 131.512 231.335 132.488 231.622 133.365C231.926 134.243 232.356 134.994 232.911 135.621C233.484 136.23 234.164 136.704 234.952 137.044C235.757 137.385 236.67 137.555 237.691 137.555C238.926 137.555 240.144 137.322 241.343 136.856C242.543 136.391 243.572 135.621 244.432 134.547L248.541 139.435C247.95 140.276 247.108 141.091 246.016 141.878C244.942 142.666 243.653 143.311 242.149 143.812C240.645 144.295 238.962 144.537 237.1 144.537ZM265.271 137.555C266.113 137.555 266.829 137.403 267.42 137.098C268.029 136.776 268.485 136.328 268.79 135.755C269.112 135.165 269.264 134.457 269.246 133.634H277.759C277.777 135.818 277.24 137.734 276.148 139.381C275.074 141.01 273.606 142.281 271.744 143.194C269.9 144.09 267.814 144.537 265.486 144.537C263.213 144.537 261.225 144.17 259.524 143.436C257.824 142.684 256.4 141.646 255.254 140.321C254.126 138.978 253.276 137.411 252.703 135.621C252.148 133.831 251.871 131.888 251.871 129.793V129.176C251.871 127.081 252.148 125.139 252.703 123.348C253.276 121.54 254.126 119.973 255.254 118.648C256.4 117.306 257.815 116.267 259.498 115.533C261.198 114.781 263.177 114.405 265.433 114.405C267.85 114.405 269.98 114.862 271.824 115.775C273.686 116.688 275.145 118.013 276.202 119.75C277.258 121.486 277.777 123.59 277.759 126.061H269.246C269.264 125.183 269.13 124.396 268.843 123.697C268.557 122.999 268.109 122.444 267.5 122.032C266.91 121.603 266.149 121.388 265.218 121.388C264.287 121.388 263.535 121.594 262.962 122.005C262.389 122.417 261.95 122.99 261.646 123.724C261.36 124.44 261.163 125.264 261.055 126.195C260.966 127.126 260.921 128.119 260.921 129.176V129.793C260.921 130.868 260.966 131.879 261.055 132.828C261.163 133.759 261.368 134.583 261.673 135.299C261.977 135.997 262.416 136.552 262.989 136.964C263.562 137.358 264.323 137.555 265.271 137.555ZM296.934 114.942V121.227H279.424V114.942H296.934ZM283.104 107.718H292.154V134.52C292.154 135.29 292.243 135.89 292.422 136.319C292.601 136.731 292.906 137.027 293.335 137.206C293.783 137.367 294.374 137.447 295.108 137.447C295.627 137.447 296.057 137.438 296.397 137.42C296.737 137.385 297.059 137.34 297.364 137.286V143.758C296.594 144.009 295.788 144.197 294.947 144.322C294.105 144.465 293.21 144.537 292.261 144.537C290.328 144.537 288.672 144.233 287.293 143.624C285.932 143.015 284.894 142.057 284.178 140.75C283.462 139.444 283.104 137.743 283.104 135.648V107.718ZM330.262 130.733H320.54V123.456H330.262C331.587 123.456 332.661 123.232 333.484 122.784C334.308 122.337 334.908 121.719 335.284 120.931C335.678 120.125 335.875 119.221 335.875 118.219C335.875 117.145 335.678 116.151 335.284 115.238C334.908 114.325 334.308 113.591 333.484 113.036C332.661 112.463 331.587 112.176 330.262 112.176H324.085V144H314.659V104.898H330.262C333.395 104.898 336.089 105.471 338.345 106.617C340.619 107.763 342.365 109.339 343.582 111.344C344.799 113.331 345.408 115.605 345.408 118.165C345.408 120.689 344.799 122.892 343.582 124.771C342.365 126.651 340.619 128.119 338.345 129.176C336.089 130.214 333.395 130.733 330.262 130.733ZM364.825 136.695V124.718C364.825 123.894 364.708 123.187 364.476 122.596C364.243 122.005 363.876 121.549 363.375 121.227C362.873 120.886 362.202 120.716 361.36 120.716C360.68 120.716 360.098 120.833 359.615 121.065C359.131 121.298 358.764 121.647 358.514 122.113C358.263 122.578 358.138 123.169 358.138 123.885H349.087C349.087 122.542 349.383 121.298 349.974 120.152C350.582 118.989 351.442 117.977 352.552 117.118C353.68 116.258 355.022 115.596 356.58 115.13C358.156 114.647 359.91 114.405 361.844 114.405C364.153 114.405 366.212 114.79 368.021 115.56C369.847 116.33 371.288 117.485 372.344 119.024C373.401 120.546 373.929 122.462 373.929 124.771V136.668C373.929 138.566 374.036 140.007 374.251 140.992C374.466 141.959 374.77 142.809 375.164 143.543V144H366.087C365.657 143.105 365.335 142.013 365.12 140.724C364.923 139.417 364.825 138.074 364.825 136.695ZM365.926 126.249L365.979 131.083H361.978C361.137 131.083 360.42 131.199 359.83 131.432C359.257 131.664 358.791 131.987 358.433 132.398C358.093 132.792 357.842 133.24 357.681 133.741C357.538 134.243 357.466 134.771 357.466 135.326C357.466 135.863 357.592 136.346 357.842 136.776C358.111 137.188 358.469 137.51 358.917 137.743C359.364 137.975 359.865 138.092 360.42 138.092C361.423 138.092 362.273 137.904 362.972 137.528C363.688 137.134 364.234 136.66 364.61 136.104C364.986 135.549 365.174 135.03 365.174 134.547L367.161 138.253C366.803 138.969 366.391 139.694 365.926 140.428C365.478 141.162 364.914 141.843 364.234 142.469C363.571 143.078 362.757 143.579 361.79 143.973C360.823 144.349 359.651 144.537 358.272 144.537C356.482 144.537 354.834 144.17 353.331 143.436C351.845 142.702 350.654 141.681 349.759 140.375C348.864 139.05 348.416 137.528 348.416 135.809C348.416 134.305 348.685 132.962 349.222 131.781C349.777 130.599 350.609 129.597 351.719 128.773C352.829 127.949 354.244 127.323 355.962 126.893C357.681 126.463 359.704 126.249 362.032 126.249H365.926ZM388.511 102.75V144H379.434V102.75H388.511ZM409.324 135.836C409.324 135.335 409.154 134.905 408.814 134.547C408.492 134.171 407.919 133.831 407.095 133.526C406.272 133.204 405.117 132.882 403.631 132.56C402.216 132.255 400.883 131.852 399.629 131.351C398.394 130.85 397.311 130.241 396.38 129.525C395.449 128.809 394.715 127.958 394.178 126.974C393.659 125.989 393.399 124.861 393.399 123.59C393.399 122.354 393.659 121.191 394.178 120.099C394.715 118.989 395.494 118.013 396.514 117.171C397.553 116.312 398.815 115.641 400.301 115.157C401.787 114.656 403.479 114.405 405.376 114.405C407.99 114.405 410.246 114.808 412.144 115.614C414.042 116.402 415.501 117.512 416.521 118.944C417.56 120.358 418.079 121.996 418.079 123.858H409.029C409.029 123.124 408.903 122.498 408.653 121.979C408.42 121.459 408.035 121.065 407.498 120.797C406.961 120.51 406.245 120.367 405.35 120.367C404.723 120.367 404.15 120.484 403.631 120.716C403.13 120.949 402.727 121.271 402.422 121.683C402.118 122.095 401.966 122.578 401.966 123.133C401.966 123.527 402.055 123.885 402.234 124.208C402.431 124.512 402.727 124.798 403.121 125.067C403.514 125.318 404.016 125.55 404.625 125.765C405.233 125.962 405.967 126.141 406.827 126.302C408.778 126.66 410.604 127.171 412.305 127.833C414.006 128.495 415.385 129.435 416.441 130.653C417.515 131.87 418.052 133.508 418.052 135.567C418.052 136.856 417.757 138.047 417.166 139.139C416.575 140.213 415.725 141.162 414.615 141.986C413.505 142.792 412.171 143.418 410.613 143.866C409.056 144.313 407.301 144.537 405.35 144.537C402.575 144.537 400.229 144.045 398.313 143.06C396.398 142.057 394.948 140.804 393.963 139.3C392.996 137.778 392.513 136.239 392.513 134.681H400.945C400.981 135.576 401.196 136.31 401.59 136.883C402.002 137.456 402.548 137.877 403.228 138.146C403.908 138.414 404.696 138.548 405.591 138.548C406.415 138.548 407.095 138.432 407.632 138.199C408.187 137.966 408.608 137.653 408.895 137.259C409.181 136.847 409.324 136.373 409.324 135.836Z" fill="#008080"/>
<path d="M114.473 55.1172V80H109.346L99.3486 63.3203V80H94.2217V55.1172H99.3486L109.363 71.814V55.1172H114.473ZM117.84 70.9424V70.5835C117.84 69.2277 118.034 67.9801 118.421 66.8408C118.808 65.6901 119.372 64.6932 120.113 63.8501C120.853 63.007 121.765 62.3519 122.847 61.8848C123.93 61.4062 125.171 61.167 126.573 61.167C127.974 61.167 129.222 61.4062 130.315 61.8848C131.409 62.3519 132.326 63.007 133.067 63.8501C133.819 64.6932 134.389 65.6901 134.776 66.8408C135.163 67.9801 135.357 69.2277 135.357 70.5835V70.9424C135.357 72.2868 135.163 73.5343 134.776 74.6851C134.389 75.8244 133.819 76.8213 133.067 77.6758C132.326 78.5189 131.415 79.174 130.333 79.6411C129.25 80.1082 128.008 80.3418 126.607 80.3418C125.206 80.3418 123.958 80.1082 122.864 79.6411C121.782 79.174 120.865 78.5189 120.113 77.6758C119.372 76.8213 118.808 75.8244 118.421 74.6851C118.034 73.5343 117.84 72.2868 117.84 70.9424ZM122.762 70.5835V70.9424C122.762 71.7171 122.83 72.4406 122.967 73.1128C123.104 73.785 123.32 74.3774 123.616 74.8901C123.924 75.3914 124.323 75.7845 124.812 76.0693C125.302 76.3542 125.901 76.4966 126.607 76.4966C127.291 76.4966 127.877 76.3542 128.367 76.0693C128.857 75.7845 129.25 75.3914 129.546 74.8901C129.843 74.3774 130.059 73.785 130.196 73.1128C130.344 72.4406 130.418 71.7171 130.418 70.9424V70.5835C130.418 69.8315 130.344 69.1252 130.196 68.4644C130.059 67.7922 129.837 67.1997 129.529 66.687C129.233 66.1629 128.84 65.7528 128.35 65.4565C127.86 65.1603 127.268 65.0122 126.573 65.0122C125.878 65.0122 125.285 65.1603 124.795 65.4565C124.317 65.7528 123.924 66.1629 123.616 66.687C123.32 67.1997 123.104 67.7922 122.967 68.4644C122.83 69.1252 122.762 69.8315 122.762 70.5835ZM149.319 75.5737V61.5088H154.241V80H149.61L149.319 75.5737ZM149.866 71.7798L151.319 71.7456C151.319 72.9761 151.176 74.1211 150.892 75.1807C150.607 76.2288 150.18 77.1403 149.61 77.915C149.04 78.6784 148.322 79.2765 147.457 79.7095C146.591 80.131 145.571 80.3418 144.397 80.3418C143.497 80.3418 142.666 80.2165 141.902 79.9658C141.15 79.7038 140.501 79.2993 139.954 78.7524C139.419 78.1942 138.997 77.4821 138.689 76.6162C138.393 75.7389 138.245 74.6851 138.245 73.4546V61.5088H143.167V73.4888C143.167 74.0356 143.23 74.4971 143.355 74.873C143.492 75.249 143.68 75.5566 143.919 75.7959C144.158 76.0352 144.437 76.2061 144.756 76.3086C145.087 76.4111 145.451 76.4624 145.85 76.4624C146.864 76.4624 147.662 76.2573 148.243 75.8472C148.835 75.437 149.251 74.8787 149.49 74.1724C149.741 73.4546 149.866 72.6571 149.866 71.7798ZM162.923 65.542V80H158.001V61.5088H162.632L162.923 65.542ZM168.494 61.3892L168.409 65.9521C168.169 65.918 167.879 65.8895 167.537 65.8667C167.207 65.8325 166.905 65.8154 166.631 65.8154C165.936 65.8154 165.333 65.9066 164.82 66.0889C164.319 66.2598 163.897 66.5161 163.555 66.8579C163.225 67.1997 162.974 67.6156 162.803 68.1055C162.644 68.5954 162.553 69.1536 162.53 69.7803L161.539 69.4727C161.539 68.2764 161.658 67.1769 161.897 66.1743C162.137 65.1603 162.484 64.2773 162.94 63.5254C163.407 62.7734 163.977 62.1924 164.649 61.7822C165.321 61.3721 166.09 61.167 166.956 61.167C167.229 61.167 167.509 61.1898 167.793 61.2354C168.078 61.2695 168.312 61.3208 168.494 61.3892ZM182.183 55.1172H186.524L192.916 73.3862L199.307 55.1172H203.648L194.659 80H191.172L182.183 55.1172ZM179.842 55.1172H184.166L184.952 72.9248V80H179.842V55.1172ZM201.666 55.1172H206.006V80H200.879V72.9248L201.666 55.1172ZM220.191 74.8901C220.191 74.5369 220.088 74.2179 219.883 73.9331C219.678 73.6483 219.297 73.3862 218.738 73.147C218.191 72.8963 217.4 72.6685 216.363 72.4634C215.429 72.2583 214.557 72.002 213.748 71.6943C212.951 71.3753 212.256 70.9937 211.663 70.5493C211.082 70.105 210.626 69.5809 210.296 68.9771C209.965 68.3618 209.8 67.6611 209.8 66.875C209.8 66.1003 209.965 65.3711 210.296 64.6875C210.638 64.0039 211.122 63.4001 211.749 62.876C212.387 62.3405 213.161 61.9246 214.073 61.6284C214.996 61.3208 216.032 61.167 217.183 61.167C218.79 61.167 220.168 61.4233 221.319 61.936C222.481 62.4487 223.37 63.1551 223.985 64.0552C224.611 64.9438 224.925 65.9578 224.925 67.0972H220.003C220.003 66.6187 219.9 66.1914 219.695 65.8154C219.502 65.4281 219.194 65.1261 218.772 64.9097C218.362 64.6818 217.827 64.5679 217.166 64.5679C216.619 64.5679 216.146 64.6647 215.748 64.8584C215.349 65.0407 215.041 65.2913 214.825 65.6104C214.62 65.918 214.517 66.2598 214.517 66.6357C214.517 66.9206 214.574 67.1769 214.688 67.4048C214.813 67.6213 215.013 67.8206 215.286 68.0029C215.56 68.1852 215.913 68.3561 216.346 68.5156C216.79 68.6637 217.337 68.8005 217.986 68.9258C219.319 69.1992 220.51 69.5581 221.558 70.0024C222.606 70.4354 223.438 71.0278 224.053 71.7798C224.668 72.5203 224.976 73.4945 224.976 74.7021C224.976 75.5225 224.794 76.2744 224.429 76.958C224.065 77.6416 223.541 78.2397 222.857 78.7524C222.173 79.2537 221.353 79.6468 220.396 79.9316C219.45 80.2051 218.385 80.3418 217.2 80.3418C215.48 80.3418 214.021 80.0342 212.825 79.4189C211.64 78.8037 210.74 78.0233 210.125 77.0776C209.521 76.1206 209.219 75.1408 209.219 74.1382H213.885C213.908 74.8104 214.078 75.3516 214.397 75.7617C214.728 76.1719 215.144 76.4681 215.645 76.6504C216.158 76.8327 216.71 76.9238 217.303 76.9238C217.941 76.9238 218.471 76.8384 218.892 76.6675C219.314 76.4852 219.633 76.2459 219.849 75.9497C220.077 75.6421 220.191 75.2889 220.191 74.8901ZM232.974 53.75V80H228.052V53.75H232.974ZM232.273 70.105H230.923C230.935 68.8175 231.106 67.6326 231.436 66.5503C231.766 65.4565 232.239 64.5109 232.854 63.7134C233.47 62.9045 234.205 62.2778 235.059 61.8335C235.925 61.3892 236.882 61.167 237.93 61.167C238.842 61.167 239.668 61.298 240.408 61.5601C241.16 61.8107 241.804 62.2209 242.339 62.7905C242.886 63.3488 243.308 64.0837 243.604 64.9951C243.9 65.9066 244.048 67.0117 244.048 68.3105V80H239.092V68.2764C239.092 67.4561 238.973 66.8123 238.733 66.3452C238.506 65.8667 238.169 65.5306 237.725 65.3369C237.292 65.1318 236.757 65.0293 236.119 65.0293C235.412 65.0293 234.808 65.1603 234.307 65.4224C233.817 65.6844 233.424 66.049 233.128 66.5161C232.832 66.9718 232.615 67.5073 232.479 68.1226C232.342 68.7378 232.273 69.3986 232.273 70.105ZM257.771 75.8301V67.5928C257.771 67.0003 257.675 66.4933 257.481 66.0718C257.287 65.6388 256.985 65.3027 256.575 65.0635C256.176 64.8242 255.658 64.7046 255.02 64.7046C254.473 64.7046 254 64.8014 253.602 64.9951C253.203 65.1774 252.895 65.4451 252.679 65.7983C252.462 66.1401 252.354 66.5446 252.354 67.0117H247.432C247.432 66.2256 247.614 65.4793 247.979 64.7729C248.344 64.0666 248.873 63.4456 249.568 62.9102C250.263 62.3633 251.089 61.936 252.046 61.6284C253.015 61.3208 254.097 61.167 255.293 61.167C256.729 61.167 258.005 61.4062 259.122 61.8848C260.238 62.3633 261.115 63.0811 261.753 64.0381C262.403 64.9951 262.728 66.1914 262.728 67.627V75.5396C262.728 76.5535 262.79 77.3853 262.916 78.0347C263.041 78.6727 263.223 79.231 263.462 79.7095V80H258.489C258.25 79.4987 258.068 78.8721 257.942 78.1201C257.828 77.3568 257.771 76.5934 257.771 75.8301ZM258.421 68.7378L258.455 71.5234H255.704C255.054 71.5234 254.49 71.5975 254.012 71.7456C253.533 71.8937 253.14 72.1045 252.833 72.3779C252.525 72.64 252.297 72.9476 252.149 73.3008C252.012 73.654 251.944 74.0413 251.944 74.4629C251.944 74.8844 252.041 75.2661 252.234 75.6079C252.428 75.9383 252.707 76.2004 253.072 76.394C253.436 76.5763 253.864 76.6675 254.354 76.6675C255.094 76.6675 255.738 76.5194 256.285 76.2231C256.832 75.9269 257.253 75.5623 257.549 75.1294C257.857 74.6965 258.016 74.2863 258.028 73.8989L259.327 75.9839C259.144 76.451 258.894 76.9352 258.575 77.4365C258.267 77.9378 257.874 78.4106 257.396 78.855C256.917 79.2879 256.342 79.6468 255.669 79.9316C254.997 80.2051 254.2 80.3418 253.277 80.3418C252.103 80.3418 251.038 80.1082 250.081 79.6411C249.135 79.1626 248.383 78.5075 247.825 77.6758C247.278 76.8327 247.005 75.8757 247.005 74.8047C247.005 73.8363 247.187 72.9761 247.552 72.2241C247.916 71.4722 248.452 70.8398 249.158 70.3271C249.876 69.8031 250.77 69.41 251.841 69.1479C252.912 68.8745 254.154 68.7378 255.567 68.7378H258.421ZM271.802 75.2148L275.647 61.5088H278.775L277.767 66.8921L273.921 80H271.307L271.802 75.2148ZM269.854 61.5088L272.605 75.1978L272.862 80H269.786L265.103 61.5088H269.854ZM282.295 74.9756L284.979 61.5088H289.747L285.064 80H282.005L282.295 74.9756ZM279.202 61.5088L283.03 75.1123L283.56 80H280.928L277.083 66.9092L276.109 61.5088H279.202ZM297.146 65.542V80H292.225V61.5088H296.856L297.146 65.542ZM302.718 61.3892L302.632 65.9521C302.393 65.918 302.103 65.8895 301.761 65.8667C301.43 65.8325 301.128 65.8154 300.855 65.8154C300.16 65.8154 299.556 65.9066 299.043 66.0889C298.542 66.2598 298.121 66.5161 297.779 66.8579C297.448 67.1997 297.198 67.6156 297.027 68.1055C296.867 68.5954 296.776 69.1536 296.753 69.7803L295.762 69.4727C295.762 68.2764 295.882 67.1769 296.121 66.1743C296.36 65.1603 296.708 64.2773 297.164 63.5254C297.631 62.7734 298.2 62.1924 298.873 61.7822C299.545 61.3721 300.314 61.167 301.18 61.167C301.453 61.167 301.732 61.1898 302.017 61.2354C302.302 61.2695 302.535 61.3208 302.718 61.3892ZM314.441 75.8301V67.5928C314.441 67.0003 314.345 66.4933 314.151 66.0718C313.957 65.6388 313.655 65.3027 313.245 65.0635C312.846 64.8242 312.328 64.7046 311.69 64.7046C311.143 64.7046 310.67 64.8014 310.271 64.9951C309.873 65.1774 309.565 65.4451 309.349 65.7983C309.132 66.1401 309.024 66.5446 309.024 67.0117H304.102C304.102 66.2256 304.284 65.4793 304.649 64.7729C305.014 64.0666 305.543 63.4456 306.238 62.9102C306.933 62.3633 307.759 61.936 308.716 61.6284C309.685 61.3208 310.767 61.167 311.963 61.167C313.399 61.167 314.675 61.4062 315.792 61.8848C316.908 62.3633 317.785 63.0811 318.423 64.0381C319.073 64.9951 319.397 66.1914 319.397 67.627V75.5396C319.397 76.5535 319.46 77.3853 319.585 78.0347C319.711 78.6727 319.893 79.231 320.132 79.7095V80H315.159C314.92 79.4987 314.738 78.8721 314.612 78.1201C314.498 77.3568 314.441 76.5934 314.441 75.8301ZM315.091 68.7378L315.125 71.5234H312.374C311.724 71.5234 311.16 71.5975 310.682 71.7456C310.203 71.8937 309.81 72.1045 309.502 72.3779C309.195 72.64 308.967 72.9476 308.819 73.3008C308.682 73.654 308.614 74.0413 308.614 74.4629C308.614 74.8844 308.711 75.2661 308.904 75.6079C309.098 75.9383 309.377 76.2004 309.742 76.394C310.106 76.5763 310.534 76.6675 311.023 76.6675C311.764 76.6675 312.408 76.5194 312.955 76.2231C313.501 75.9269 313.923 75.5623 314.219 75.1294C314.527 74.6965 314.686 74.2863 314.698 73.8989L315.997 75.9839C315.814 76.451 315.564 76.9352 315.245 77.4365C314.937 77.9378 314.544 78.4106 314.065 78.855C313.587 79.2879 313.012 79.6468 312.339 79.9316C311.667 80.2051 310.87 80.3418 309.947 80.3418C308.773 80.3418 307.708 80.1082 306.751 79.6411C305.805 79.1626 305.053 78.5075 304.495 77.6758C303.948 76.8327 303.675 75.8757 303.675 74.8047C303.675 73.8363 303.857 72.9761 304.222 72.2241C304.586 71.4722 305.122 70.8398 305.828 70.3271C306.546 69.8031 307.44 69.41 308.511 69.1479C309.582 68.8745 310.824 68.7378 312.237 68.7378H315.091ZM323.191 53.75H328.113V75.7617L327.618 80H323.191V53.75ZM339.82 70.5664V70.9253C339.82 72.3039 339.672 73.5685 339.375 74.7192C339.091 75.87 338.646 76.8669 338.042 77.71C337.439 78.5417 336.687 79.1911 335.787 79.6582C334.898 80.1139 333.85 80.3418 332.642 80.3418C331.514 80.3418 330.534 80.1139 329.703 79.6582C328.882 79.2025 328.193 78.5588 327.635 77.7271C327.076 76.8953 326.626 75.9212 326.285 74.8047C325.943 73.6882 325.687 72.4691 325.516 71.1475V70.3613C325.687 69.0397 325.943 67.8206 326.285 66.7041C326.626 65.5876 327.076 64.6134 327.635 63.7817C328.193 62.95 328.882 62.3063 329.703 61.8506C330.523 61.3949 331.491 61.167 332.608 61.167C333.827 61.167 334.887 61.4006 335.787 61.8677C336.698 62.3234 337.45 62.9728 338.042 63.8159C338.646 64.6476 339.091 65.6388 339.375 66.7896C339.672 67.9289 339.82 69.1878 339.82 70.5664ZM334.898 70.9253V70.5664C334.898 69.8145 334.841 69.1081 334.727 68.4473C334.625 67.7751 334.442 67.1883 334.18 66.687C333.918 66.1743 333.559 65.7699 333.104 65.4736C332.659 65.1774 332.084 65.0293 331.377 65.0293C330.705 65.0293 330.136 65.1432 329.668 65.3711C329.201 65.599 328.814 65.918 328.506 66.3281C328.21 66.7383 327.988 67.2282 327.84 67.7979C327.692 68.3561 327.601 68.9714 327.566 69.6436V71.8823C327.601 72.7824 327.749 73.5799 328.011 74.2749C328.284 74.9585 328.694 75.4997 329.241 75.8984C329.799 76.2858 330.523 76.4795 331.412 76.4795C332.107 76.4795 332.682 76.3428 333.138 76.0693C333.593 75.7959 333.947 75.4085 334.197 74.9072C334.459 74.4059 334.642 73.8192 334.744 73.147C334.847 72.4634 334.898 71.7228 334.898 70.9253Z" fill="#008080" fill-opacity="0.5"/>
<rect x="92" y="181" width="1179" height="80" rx="13.3333" fill="white"/>
<rect x="105" y="194.333" width="212" height="53.3333" rx="6.66667" fill="white"/>
<rect x="107" y="196.333" width="208" height="49.3333" rx="4.66667" stroke="#008080" stroke-opacity="0.5" stroke-width="4"/>
<path d="M150.833 213.167H156.802C157.969 213.167 158.983 213.34 159.844 213.687C160.705 214.035 161.368 214.549 161.833 215.229C162.306 215.91 162.542 216.75 162.542 217.75C162.542 218.618 162.406 219.344 162.135 219.927C161.865 220.51 161.486 220.993 161 221.375C160.521 221.75 159.962 222.059 159.323 222.302L158.125 222.979H153.115L153.094 220.156H156.802C157.267 220.156 157.653 220.073 157.958 219.906C158.264 219.74 158.493 219.503 158.646 219.198C158.806 218.885 158.885 218.514 158.885 218.083C158.885 217.646 158.806 217.271 158.646 216.958C158.486 216.646 158.25 216.406 157.937 216.24C157.632 216.073 157.253 215.99 156.802 215.99H154.49V228.333H150.833V213.167ZM159.135 228.333L155.781 221.625L159.656 221.604L163.052 228.177V228.333H159.135ZM170.042 228.542C169.125 228.542 168.306 228.399 167.583 228.115C166.861 227.823 166.25 227.424 165.75 226.917C165.257 226.41 164.878 225.826 164.615 225.167C164.358 224.507 164.229 223.809 164.229 223.073V222.677C164.229 221.851 164.344 221.087 164.573 220.385C164.802 219.677 165.142 219.059 165.594 218.531C166.045 218.003 166.611 217.594 167.292 217.302C167.972 217.003 168.764 216.854 169.667 216.854C170.465 216.854 171.181 216.983 171.813 217.24C172.444 217.497 172.979 217.865 173.417 218.344C173.861 218.823 174.198 219.403 174.427 220.083C174.663 220.764 174.781 221.528 174.781 222.375V223.802H165.573V221.604H171.354V221.333C171.361 220.958 171.295 220.639 171.156 220.375C171.024 220.111 170.83 219.91 170.573 219.771C170.316 219.632 170.003 219.562 169.635 219.562C169.253 219.562 168.938 219.646 168.688 219.812C168.444 219.979 168.253 220.208 168.115 220.5C167.983 220.785 167.889 221.115 167.833 221.49C167.778 221.865 167.75 222.26 167.75 222.677V223.073C167.75 223.49 167.806 223.868 167.917 224.208C168.035 224.549 168.201 224.84 168.417 225.083C168.639 225.319 168.903 225.503 169.208 225.635C169.521 225.767 169.875 225.833 170.271 225.833C170.75 225.833 171.222 225.743 171.688 225.562C172.153 225.382 172.552 225.083 172.885 224.667L174.479 226.562C174.25 226.889 173.924 227.205 173.5 227.51C173.083 227.816 172.583 228.066 172 228.26C171.417 228.448 170.764 228.542 170.042 228.542ZM182.063 225.5V220.854C182.063 220.535 182.017 220.26 181.927 220.031C181.837 219.802 181.694 219.625 181.5 219.5C181.306 219.368 181.045 219.302 180.719 219.302C180.455 219.302 180.229 219.347 180.042 219.437C179.854 219.528 179.712 219.663 179.615 219.844C179.517 220.024 179.469 220.253 179.469 220.531H175.958C175.958 220.01 176.073 219.528 176.302 219.083C176.538 218.632 176.872 218.24 177.302 217.906C177.74 217.573 178.26 217.316 178.865 217.135C179.476 216.948 180.156 216.854 180.906 216.854C181.802 216.854 182.601 217.003 183.302 217.302C184.01 217.601 184.569 218.049 184.979 218.646C185.389 219.236 185.594 219.979 185.594 220.875V225.49C185.594 226.226 185.635 226.785 185.719 227.167C185.802 227.542 185.92 227.872 186.073 228.156V228.333H182.552C182.385 227.986 182.26 227.562 182.177 227.062C182.101 226.556 182.063 226.035 182.063 225.5ZM182.49 221.448L182.51 223.323H180.958C180.632 223.323 180.354 223.368 180.125 223.458C179.903 223.549 179.722 223.674 179.583 223.833C179.451 223.986 179.354 224.16 179.292 224.354C179.236 224.549 179.208 224.753 179.208 224.969C179.208 225.177 179.257 225.365 179.354 225.531C179.458 225.691 179.597 225.816 179.771 225.906C179.944 225.997 180.139 226.042 180.354 226.042C180.743 226.042 181.073 225.969 181.344 225.823C181.622 225.67 181.833 225.486 181.979 225.271C182.125 225.056 182.198 224.854 182.198 224.667L182.969 226.104C182.83 226.382 182.67 226.663 182.49 226.948C182.316 227.233 182.097 227.497 181.833 227.74C181.576 227.976 181.26 228.17 180.885 228.323C180.51 228.469 180.056 228.542 179.521 228.542C178.826 228.542 178.188 228.399 177.604 228.115C177.028 227.83 176.566 227.434 176.219 226.927C175.872 226.413 175.698 225.823 175.698 225.156C175.698 224.573 175.802 224.052 176.01 223.594C176.226 223.135 176.549 222.747 176.979 222.427C177.41 222.108 177.958 221.865 178.625 221.698C179.292 221.531 180.076 221.448 180.979 221.448H182.49ZM192.302 225.833C192.628 225.833 192.906 225.774 193.135 225.656C193.372 225.531 193.549 225.358 193.667 225.135C193.792 224.906 193.851 224.632 193.844 224.312H197.146C197.153 225.16 196.944 225.903 196.521 226.542C196.104 227.174 195.535 227.667 194.812 228.021C194.097 228.368 193.288 228.542 192.385 228.542C191.503 228.542 190.733 228.399 190.073 228.115C189.413 227.823 188.861 227.42 188.417 226.906C187.979 226.385 187.649 225.778 187.427 225.083C187.212 224.389 187.104 223.635 187.104 222.823V222.583C187.104 221.771 187.212 221.017 187.427 220.323C187.649 219.622 187.979 219.014 188.417 218.5C188.861 217.979 189.41 217.576 190.062 217.292C190.722 217 191.49 216.854 192.365 216.854C193.302 216.854 194.128 217.031 194.844 217.385C195.566 217.74 196.132 218.253 196.542 218.927C196.951 219.601 197.153 220.417 197.146 221.375H193.844C193.851 221.035 193.799 220.729 193.687 220.458C193.576 220.187 193.403 219.972 193.167 219.812C192.937 219.646 192.642 219.562 192.281 219.562C191.92 219.562 191.628 219.642 191.406 219.802C191.184 219.962 191.014 220.184 190.896 220.469C190.785 220.747 190.708 221.066 190.667 221.427C190.632 221.788 190.615 222.174 190.615 222.583V222.823C190.615 223.24 190.632 223.632 190.667 224C190.708 224.361 190.788 224.681 190.906 224.958C191.024 225.229 191.194 225.444 191.417 225.604C191.639 225.757 191.934 225.833 192.302 225.833ZM204.583 217.062V219.5H197.792V217.062H204.583ZM199.219 214.26H202.729V224.656C202.729 224.955 202.764 225.187 202.833 225.354C202.903 225.514 203.021 225.628 203.188 225.698C203.361 225.76 203.59 225.792 203.875 225.792C204.076 225.792 204.243 225.788 204.375 225.781C204.507 225.767 204.632 225.75 204.75 225.729V228.24C204.451 228.337 204.139 228.41 203.813 228.458C203.486 228.514 203.139 228.542 202.771 228.542C202.021 228.542 201.378 228.424 200.844 228.187C200.316 227.951 199.913 227.58 199.635 227.073C199.358 226.566 199.219 225.906 199.219 225.094V214.26ZM224.125 213.167V228.333H220.479L215.115 218.896V228.333H211.458V213.167H215.115L220.479 222.604V213.167H224.125ZM232.125 225.5V220.854C232.125 220.535 232.08 220.26 231.99 220.031C231.899 219.802 231.757 219.625 231.563 219.5C231.368 219.368 231.108 219.302 230.781 219.302C230.517 219.302 230.292 219.347 230.104 219.437C229.917 219.528 229.774 219.663 229.677 219.844C229.58 220.024 229.531 220.253 229.531 220.531H226.021C226.021 220.01 226.135 219.528 226.365 219.083C226.601 218.632 226.934 218.24 227.365 217.906C227.802 217.573 228.323 217.316 228.927 217.135C229.538 216.948 230.219 216.854 230.969 216.854C231.865 216.854 232.663 217.003 233.365 217.302C234.073 217.601 234.632 218.049 235.042 218.646C235.451 219.236 235.656 219.979 235.656 220.875V225.49C235.656 226.226 235.698 226.785 235.781 227.167C235.865 227.542 235.983 227.872 236.135 228.156V228.333H232.615C232.448 227.986 232.323 227.562 232.24 227.062C232.163 226.556 232.125 226.035 232.125 225.5ZM232.552 221.448L232.573 223.323H231.021C230.694 223.323 230.417 223.368 230.188 223.458C229.965 223.549 229.785 223.674 229.646 223.833C229.514 223.986 229.417 224.16 229.354 224.354C229.299 224.549 229.271 224.753 229.271 224.969C229.271 225.177 229.319 225.365 229.417 225.531C229.521 225.691 229.66 225.816 229.833 225.906C230.007 225.997 230.201 226.042 230.417 226.042C230.806 226.042 231.135 225.969 231.406 225.823C231.684 225.67 231.896 225.486 232.042 225.271C232.188 225.056 232.26 224.854 232.26 224.667L233.031 226.104C232.892 226.382 232.733 226.663 232.552 226.948C232.378 227.233 232.16 227.497 231.896 227.74C231.639 227.976 231.323 228.17 230.948 228.323C230.573 228.469 230.118 228.542 229.583 228.542C228.889 228.542 228.25 228.399 227.667 228.115C227.09 227.83 226.628 227.434 226.281 226.927C225.934 226.413 225.76 225.823 225.76 225.156C225.76 224.573 225.865 224.052 226.073 223.594C226.288 223.135 226.611 222.747 227.042 222.427C227.472 222.108 228.021 221.865 228.688 221.698C229.354 221.531 230.139 221.448 231.042 221.448H232.552ZM243.542 217.062V219.5H236.75V217.062H243.542ZM238.177 214.26H241.687V224.656C241.687 224.955 241.722 225.187 241.792 225.354C241.861 225.514 241.979 225.628 242.146 225.698C242.319 225.76 242.549 225.792 242.833 225.792C243.035 225.792 243.201 225.788 243.333 225.781C243.465 225.767 243.59 225.75 243.708 225.729V228.24C243.41 228.337 243.097 228.41 242.771 228.458C242.444 228.514 242.097 228.542 241.729 228.542C240.979 228.542 240.337 228.424 239.802 228.187C239.274 227.951 238.872 227.58 238.594 227.073C238.316 226.566 238.177 225.906 238.177 225.094V214.26ZM248.646 217.062V228.333H245.125V217.062H248.646ZM244.917 214.156C244.917 213.656 245.097 213.247 245.458 212.927C245.819 212.608 246.288 212.448 246.865 212.448C247.441 212.448 247.91 212.608 248.271 212.927C248.632 213.247 248.813 213.656 248.813 214.156C248.813 214.656 248.632 215.066 248.271 215.385C247.91 215.705 247.441 215.865 246.865 215.865C246.288 215.865 245.819 215.705 245.458 215.385C245.097 215.066 244.917 214.656 244.917 214.156ZM254.875 225.927L257.094 217.062H260.792L257.104 228.333H254.917L254.875 225.927ZM253.563 217.062L255.75 225.927L255.729 228.333H253.531L249.854 217.062H253.563ZM267.146 228.542C266.229 228.542 265.41 228.399 264.688 228.115C263.965 227.823 263.354 227.424 262.854 226.917C262.361 226.41 261.983 225.826 261.719 225.167C261.462 224.507 261.333 223.809 261.333 223.073V222.677C261.333 221.851 261.448 221.087 261.677 220.385C261.906 219.677 262.247 219.059 262.698 218.531C263.149 218.003 263.715 217.594 264.396 217.302C265.076 217.003 265.868 216.854 266.771 216.854C267.569 216.854 268.285 216.983 268.917 217.24C269.549 217.497 270.083 217.865 270.521 218.344C270.965 218.823 271.302 219.403 271.531 220.083C271.767 220.764 271.885 221.528 271.885 222.375V223.802H262.677V221.604H268.458V221.333C268.465 220.958 268.399 220.639 268.26 220.375C268.128 220.111 267.934 219.91 267.677 219.771C267.42 219.632 267.108 219.562 266.74 219.562C266.358 219.562 266.042 219.646 265.792 219.812C265.549 219.979 265.358 220.208 265.219 220.5C265.087 220.785 264.993 221.115 264.938 221.49C264.882 221.865 264.854 222.26 264.854 222.677V223.073C264.854 223.49 264.91 223.868 265.021 224.208C265.139 224.549 265.306 224.84 265.521 225.083C265.743 225.319 266.007 225.503 266.313 225.635C266.625 225.767 266.979 225.833 267.375 225.833C267.854 225.833 268.326 225.743 268.792 225.562C269.257 225.382 269.656 225.083 269.99 224.667L271.583 226.562C271.354 226.889 271.028 227.205 270.604 227.51C270.188 227.816 269.688 228.066 269.104 228.26C268.521 228.448 267.868 228.542 267.146 228.542Z" fill="#008080"/>
<rect x="337" y="194.333" width="212" height="53.3333" rx="6.66667" fill="white"/>
<rect x="339" y="196.333" width="208" height="49.3333" rx="4.66667" stroke="#008080" stroke-opacity="0.5" stroke-width="4"/>
<path d="M418.844 213.167V228.333H415.198L409.833 218.896V228.333H406.177V213.167H409.833L415.198 222.604V213.167H418.844ZM420.552 222.812V222.594C420.552 221.767 420.67 221.007 420.906 220.312C421.142 219.611 421.49 219.003 421.948 218.49C422.406 217.976 422.972 217.576 423.646 217.292C424.319 217 425.097 216.854 425.979 216.854C426.868 216.854 427.649 217 428.323 217.292C429.003 217.576 429.573 217.976 430.031 218.49C430.49 219.003 430.837 219.611 431.073 220.312C431.309 221.007 431.427 221.767 431.427 222.594V222.812C431.427 223.632 431.309 224.392 431.073 225.094C430.837 225.788 430.49 226.396 430.031 226.917C429.573 227.431 429.007 227.83 428.333 228.115C427.66 228.399 426.882 228.542 426 228.542C425.118 228.542 424.337 228.399 423.656 228.115C422.976 227.83 422.406 227.431 421.948 226.917C421.49 226.396 421.142 225.788 420.906 225.094C420.67 224.392 420.552 223.632 420.552 222.812ZM424.062 222.594V222.812C424.062 223.236 424.094 223.632 424.156 224C424.219 224.368 424.323 224.691 424.469 224.969C424.615 225.24 424.812 225.451 425.062 225.604C425.312 225.757 425.625 225.833 426 225.833C426.368 225.833 426.674 225.757 426.917 225.604C427.167 225.451 427.365 225.24 427.51 224.969C427.656 224.691 427.76 224.368 427.823 224C427.885 223.632 427.917 223.236 427.917 222.812V222.594C427.917 222.184 427.885 221.799 427.823 221.437C427.76 221.069 427.656 220.747 427.51 220.469C427.365 220.184 427.167 219.962 426.917 219.802C426.667 219.642 426.354 219.562 425.979 219.562C425.611 219.562 425.302 219.642 425.052 219.802C424.809 219.962 424.615 220.184 424.469 220.469C424.323 220.747 424.219 221.069 424.156 221.437C424.094 221.799 424.062 222.184 424.062 222.594ZM439.469 225.75V212.333H443V228.333H439.833L439.469 225.75ZM432.552 222.833V222.615C432.552 221.76 432.646 220.983 432.833 220.281C433.021 219.573 433.299 218.965 433.667 218.458C434.035 217.944 434.493 217.549 435.042 217.271C435.59 216.993 436.222 216.854 436.938 216.854C437.576 216.854 438.135 217.003 438.615 217.302C439.094 217.594 439.503 218.003 439.844 218.531C440.184 219.059 440.462 219.677 440.677 220.385C440.892 221.087 441.056 221.844 441.167 222.656V222.917C441.056 223.681 440.892 224.403 440.677 225.083C440.462 225.757 440.184 226.354 439.844 226.875C439.503 227.396 439.09 227.806 438.604 228.104C438.125 228.396 437.563 228.542 436.917 228.542C436.201 228.542 435.569 228.399 435.021 228.115C434.479 227.83 434.024 227.431 433.656 226.917C433.295 226.403 433.021 225.799 432.833 225.104C432.646 224.41 432.552 223.653 432.552 222.833ZM436.063 222.615V222.833C436.063 223.257 436.09 223.649 436.146 224.01C436.201 224.372 436.295 224.691 436.427 224.969C436.566 225.24 436.747 225.451 436.969 225.604C437.198 225.757 437.479 225.833 437.813 225.833C438.264 225.833 438.635 225.726 438.927 225.51C439.226 225.295 439.444 224.99 439.583 224.594C439.729 224.198 439.792 223.733 439.771 223.198V222.375C439.785 221.917 439.753 221.514 439.677 221.167C439.601 220.812 439.479 220.517 439.313 220.281C439.153 220.045 438.948 219.868 438.698 219.75C438.455 219.625 438.167 219.562 437.833 219.562C437.507 219.562 437.229 219.639 437 219.792C436.778 219.944 436.597 220.16 436.458 220.437C436.319 220.708 436.219 221.031 436.156 221.406C436.094 221.774 436.063 222.177 436.063 222.615ZM450.448 228.542C449.531 228.542 448.712 228.399 447.99 228.115C447.267 227.823 446.656 227.424 446.156 226.917C445.663 226.41 445.285 225.826 445.021 225.167C444.764 224.507 444.635 223.809 444.635 223.073V222.677C444.635 221.851 444.75 221.087 444.979 220.385C445.208 219.677 445.549 219.059 446 218.531C446.451 218.003 447.017 217.594 447.698 217.302C448.378 217.003 449.17 216.854 450.073 216.854C450.872 216.854 451.587 216.983 452.219 217.24C452.851 217.497 453.385 217.865 453.823 218.344C454.267 218.823 454.604 219.403 454.833 220.083C455.069 220.764 455.188 221.528 455.188 222.375V223.802H445.979V221.604H451.76V221.333C451.767 220.958 451.701 220.639 451.563 220.375C451.431 220.111 451.236 219.91 450.979 219.771C450.722 219.632 450.41 219.562 450.042 219.562C449.66 219.562 449.344 219.646 449.094 219.812C448.851 219.979 448.66 220.208 448.521 220.5C448.389 220.785 448.295 221.115 448.24 221.49C448.184 221.865 448.156 222.26 448.156 222.677V223.073C448.156 223.49 448.212 223.868 448.323 224.208C448.441 224.549 448.608 224.84 448.823 225.083C449.045 225.319 449.309 225.503 449.615 225.635C449.927 225.767 450.281 225.833 450.677 225.833C451.156 225.833 451.628 225.743 452.094 225.562C452.559 225.382 452.958 225.083 453.292 224.667L454.885 226.562C454.656 226.889 454.33 227.205 453.906 227.51C453.49 227.816 452.99 228.066 452.406 228.26C451.823 228.448 451.17 228.542 450.448 228.542ZM462.813 223.573V213.167H466.458V223.573C466.458 224.587 466.226 225.465 465.76 226.208C465.302 226.951 464.677 227.528 463.885 227.937C463.101 228.34 462.219 228.542 461.24 228.542C460.226 228.542 459.323 228.372 458.531 228.031C457.747 227.691 457.128 227.167 456.677 226.458C456.233 225.75 456.01 224.847 456.01 223.75H459.677C459.677 224.264 459.736 224.667 459.854 224.958C459.972 225.243 460.146 225.444 460.375 225.562C460.611 225.674 460.899 225.729 461.24 225.729C461.573 225.729 461.854 225.646 462.083 225.479C462.319 225.306 462.5 225.059 462.625 224.74C462.75 224.413 462.813 224.024 462.813 223.573ZM476.594 224.302C476.594 224.066 476.559 223.854 476.49 223.667C476.42 223.472 476.292 223.292 476.104 223.125C475.917 222.958 475.646 222.792 475.292 222.625C474.944 222.451 474.486 222.271 473.917 222.083C473.25 221.861 472.608 221.611 471.99 221.333C471.372 221.049 470.819 220.719 470.333 220.344C469.847 219.962 469.462 219.517 469.177 219.01C468.892 218.497 468.75 217.899 468.75 217.219C468.75 216.566 468.896 215.979 469.188 215.458C469.479 214.931 469.885 214.483 470.406 214.115C470.934 213.74 471.552 213.455 472.26 213.26C472.969 213.059 473.743 212.958 474.583 212.958C475.694 212.958 476.674 213.153 477.521 213.542C478.375 213.924 479.042 214.469 479.521 215.177C480.007 215.878 480.25 216.708 480.25 217.667H476.615C476.615 217.285 476.535 216.948 476.375 216.656C476.222 216.365 475.99 216.135 475.677 215.969C475.365 215.802 474.972 215.719 474.5 215.719C474.042 215.719 473.656 215.788 473.344 215.927C473.031 216.066 472.795 216.253 472.635 216.49C472.476 216.719 472.396 216.972 472.396 217.25C472.396 217.479 472.458 217.687 472.583 217.875C472.715 218.056 472.899 218.226 473.135 218.385C473.378 218.545 473.67 218.698 474.01 218.844C474.358 218.99 474.747 219.132 475.177 219.271C475.983 219.528 476.698 219.816 477.323 220.135C477.955 220.448 478.486 220.806 478.917 221.208C479.354 221.604 479.684 222.056 479.906 222.562C480.135 223.069 480.25 223.642 480.25 224.281C480.25 224.962 480.118 225.566 479.854 226.094C479.59 226.622 479.212 227.069 478.719 227.437C478.226 227.799 477.635 228.073 476.948 228.26C476.26 228.448 475.493 228.542 474.646 228.542C473.868 228.542 473.101 228.444 472.344 228.25C471.594 228.049 470.913 227.743 470.302 227.333C469.691 226.917 469.201 226.385 468.833 225.74C468.472 225.087 468.292 224.312 468.292 223.417H471.958C471.958 223.861 472.017 224.236 472.135 224.542C472.253 224.847 472.427 225.094 472.656 225.281C472.885 225.462 473.167 225.594 473.5 225.677C473.833 225.753 474.215 225.792 474.646 225.792C475.111 225.792 475.486 225.726 475.771 225.594C476.056 225.455 476.264 225.274 476.396 225.052C476.528 224.823 476.594 224.573 476.594 224.302Z" fill="#008080"/>
<path d="M569 201C569 197.318 571.985 194.333 575.667 194.333H774.333C778.015 194.333 781 197.318 781 201V241C781 244.682 778.015 247.667 774.333 247.667H575.667C571.985 247.667 569 244.682 569 241V201Z" fill="white"/>
<path d="M571 201C571 198.423 573.089 196.333 575.667 196.333H774.333C776.911 196.333 779 198.423 779 201V241C779 243.577 776.911 245.667 774.333 245.667H575.667C573.089 245.667 571 243.577 571 241V201Z" stroke="#008080" stroke-opacity="0.5" stroke-width="4"/>
<path d="M630.656 213.167H633.635L637.021 223.719L640.406 213.167H643.385L638.229 228.333H635.813L630.656 213.167ZM628.844 213.167H631.927L632.5 224.792V228.333H628.844V213.167ZM642.115 213.167H645.208V228.333H641.542V224.792L642.115 213.167ZM646.948 222.812V222.594C646.948 221.767 647.066 221.007 647.302 220.312C647.538 219.611 647.885 219.003 648.344 218.49C648.802 217.976 649.368 217.576 650.042 217.292C650.715 217 651.493 216.854 652.375 216.854C653.264 216.854 654.045 217 654.719 217.292C655.399 217.576 655.969 217.976 656.427 218.49C656.885 219.003 657.233 219.611 657.469 220.312C657.705 221.007 657.823 221.767 657.823 222.594V222.812C657.823 223.632 657.705 224.392 657.469 225.094C657.233 225.788 656.885 226.396 656.427 226.917C655.969 227.431 655.403 227.83 654.729 228.115C654.056 228.399 653.278 228.542 652.396 228.542C651.514 228.542 650.733 228.399 650.052 228.115C649.372 227.83 648.802 227.431 648.344 226.917C647.885 226.396 647.538 225.788 647.302 225.094C647.066 224.392 646.948 223.632 646.948 222.812ZM650.458 222.594V222.812C650.458 223.236 650.49 223.632 650.552 224C650.615 224.368 650.719 224.691 650.865 224.969C651.01 225.24 651.208 225.451 651.458 225.604C651.708 225.757 652.021 225.833 652.396 225.833C652.764 225.833 653.069 225.757 653.313 225.604C653.563 225.451 653.76 225.24 653.906 224.969C654.052 224.691 654.156 224.368 654.219 224C654.281 223.632 654.313 223.236 654.313 222.812V222.594C654.313 222.184 654.281 221.799 654.219 221.437C654.156 221.069 654.052 220.747 653.906 220.469C653.76 220.184 653.563 219.962 653.313 219.802C653.063 219.642 652.75 219.562 652.375 219.562C652.007 219.562 651.698 219.642 651.448 219.802C651.205 219.962 651.01 220.184 650.865 220.469C650.719 220.747 650.615 221.069 650.552 221.437C650.49 221.799 650.458 222.184 650.458 222.594ZM662.833 219.469V228.333H659.323V217.062H662.615L662.833 219.469ZM662.417 222.312L661.594 222.333C661.594 221.472 661.698 220.705 661.906 220.031C662.115 219.351 662.41 218.774 662.792 218.302C663.174 217.83 663.628 217.472 664.156 217.229C664.691 216.979 665.285 216.854 665.938 216.854C666.458 216.854 666.934 216.931 667.365 217.083C667.802 217.236 668.177 217.483 668.49 217.823C668.809 218.163 669.052 218.615 669.219 219.177C669.392 219.733 669.479 220.42 669.479 221.24V228.333H665.948V221.229C665.948 220.778 665.885 220.434 665.76 220.198C665.635 219.955 665.455 219.788 665.219 219.698C664.983 219.608 664.694 219.562 664.354 219.562C663.993 219.562 663.688 219.632 663.438 219.771C663.188 219.91 662.986 220.104 662.833 220.354C662.688 220.597 662.58 220.885 662.51 221.219C662.448 221.552 662.417 221.917 662.417 222.312ZM678.51 217.062H681.698V227.896C681.698 228.937 681.458 229.819 680.979 230.542C680.5 231.271 679.83 231.823 678.969 232.198C678.115 232.58 677.115 232.771 675.969 232.771C675.462 232.771 674.944 232.705 674.417 232.573C673.889 232.448 673.396 232.26 672.938 232.01C672.479 231.76 672.094 231.451 671.781 231.083L673.25 229.021C673.535 229.34 673.892 229.611 674.323 229.833C674.753 230.062 675.26 230.177 675.844 230.177C676.351 230.177 676.774 230.087 677.115 229.906C677.462 229.726 677.726 229.462 677.906 229.115C678.087 228.774 678.177 228.361 678.177 227.875V219.729L678.51 217.062ZM671.021 222.833V222.615C671.021 221.76 671.125 220.983 671.333 220.281C671.549 219.573 671.854 218.965 672.25 218.458C672.653 217.944 673.139 217.549 673.708 217.271C674.278 216.993 674.92 216.854 675.635 216.854C676.406 216.854 677.038 217.003 677.531 217.302C678.031 217.594 678.431 218.003 678.729 218.531C679.035 219.059 679.271 219.677 679.438 220.385C679.611 221.087 679.757 221.844 679.875 222.656V222.917C679.757 223.681 679.594 224.403 679.385 225.083C679.184 225.757 678.92 226.354 678.594 226.875C678.267 227.396 677.858 227.806 677.365 228.104C676.878 228.396 676.295 228.542 675.615 228.542C674.906 228.542 674.267 228.399 673.698 228.115C673.135 227.83 672.653 227.431 672.25 226.917C671.854 226.403 671.549 225.799 671.333 225.104C671.125 224.41 671.021 223.653 671.021 222.833ZM674.531 222.615V222.833C674.531 223.257 674.569 223.649 674.646 224.01C674.729 224.372 674.854 224.691 675.021 224.969C675.188 225.24 675.392 225.451 675.635 225.604C675.885 225.757 676.177 225.833 676.51 225.833C677.017 225.833 677.427 225.726 677.74 225.51C678.052 225.295 678.278 224.99 678.417 224.594C678.556 224.198 678.615 223.733 678.594 223.198V222.375C678.608 221.917 678.576 221.514 678.5 221.167C678.424 220.812 678.302 220.517 678.135 220.281C677.976 220.045 677.76 219.868 677.49 219.75C677.226 219.625 676.906 219.562 676.531 219.562C676.205 219.562 675.917 219.639 675.667 219.792C675.417 219.944 675.208 220.16 675.042 220.437C674.875 220.708 674.747 221.031 674.656 221.406C674.573 221.774 674.531 222.177 674.531 222.615ZM683.281 222.812V222.594C683.281 221.767 683.399 221.007 683.635 220.312C683.872 219.611 684.219 219.003 684.677 218.49C685.135 217.976 685.701 217.576 686.375 217.292C687.049 217 687.826 216.854 688.708 216.854C689.597 216.854 690.378 217 691.052 217.292C691.733 217.576 692.302 217.976 692.76 218.49C693.219 219.003 693.566 219.611 693.802 220.312C694.038 221.007 694.156 221.767 694.156 222.594V222.812C694.156 223.632 694.038 224.392 693.802 225.094C693.566 225.788 693.219 226.396 692.76 226.917C692.302 227.431 691.736 227.83 691.063 228.115C690.389 228.399 689.611 228.542 688.729 228.542C687.847 228.542 687.066 228.399 686.385 228.115C685.705 227.83 685.135 227.431 684.677 226.917C684.219 226.396 683.872 225.788 683.635 225.094C683.399 224.392 683.281 223.632 683.281 222.812ZM686.792 222.594V222.812C686.792 223.236 686.823 223.632 686.885 224C686.948 224.368 687.052 224.691 687.198 224.969C687.344 225.24 687.542 225.451 687.792 225.604C688.042 225.757 688.354 225.833 688.729 225.833C689.097 225.833 689.403 225.757 689.646 225.604C689.896 225.451 690.094 225.24 690.24 224.969C690.385 224.691 690.49 224.368 690.552 224C690.615 223.632 690.646 223.236 690.646 222.812V222.594C690.646 222.184 690.615 221.799 690.552 221.437C690.49 221.069 690.385 220.747 690.24 220.469C690.094 220.184 689.896 219.962 689.646 219.802C689.396 219.642 689.083 219.562 688.708 219.562C688.34 219.562 688.031 219.642 687.781 219.802C687.538 219.962 687.344 220.184 687.198 220.469C687.052 220.747 686.948 221.069 686.885 221.437C686.823 221.799 686.792 222.184 686.792 222.594ZM700.813 228.333H697.448L697.469 225.521H700.813C701.507 225.521 702.094 225.354 702.573 225.021C703.059 224.687 703.427 224.191 703.677 223.531C703.934 222.865 704.063 222.045 704.063 221.073V220.417C704.063 219.687 703.99 219.049 703.844 218.5C703.705 217.944 703.497 217.483 703.219 217.115C702.941 216.74 702.594 216.458 702.177 216.271C701.767 216.083 701.295 215.99 700.76 215.99H697.385V213.167H700.76C701.788 213.167 702.729 213.344 703.583 213.698C704.444 214.045 705.188 214.545 705.813 215.198C706.444 215.844 706.931 216.611 707.271 217.5C707.618 218.382 707.792 219.361 707.792 220.437V221.073C707.792 222.142 707.618 223.122 707.271 224.01C706.931 224.899 706.448 225.667 705.823 226.312C705.198 226.958 704.458 227.458 703.604 227.812C702.757 228.16 701.826 228.333 700.813 228.333ZM699.542 213.167V228.333H695.885V213.167H699.542ZM715.885 221.885H711.979L711.958 219.49H715.125C715.694 219.49 716.149 219.427 716.49 219.302C716.83 219.17 717.076 218.979 717.229 218.729C717.389 218.479 717.469 218.167 717.469 217.792C717.469 217.361 717.389 217.014 717.229 216.75C717.069 216.486 716.816 216.295 716.469 216.177C716.128 216.052 715.688 215.99 715.146 215.99H713.354V228.333H709.698V213.167H715.146C716.083 213.167 716.92 213.253 717.656 213.427C718.392 213.594 719.017 213.851 719.531 214.198C720.052 214.545 720.448 214.983 720.719 215.51C720.99 216.031 721.125 216.646 721.125 217.354C721.125 217.972 720.993 218.552 720.729 219.094C720.465 219.635 720.024 220.076 719.406 220.417C718.795 220.75 717.958 220.924 716.896 220.937L715.885 221.885ZM715.74 228.333H711.094L712.344 225.521H715.74C716.24 225.521 716.639 225.444 716.938 225.292C717.243 225.132 717.462 224.924 717.594 224.667C717.733 224.403 717.802 224.111 717.802 223.792C717.802 223.403 717.736 223.066 717.604 222.781C717.479 222.497 717.278 222.278 717 222.125C716.722 221.965 716.351 221.885 715.885 221.885H712.813L712.833 219.49H716.51L717.365 220.448C718.378 220.406 719.181 220.549 719.771 220.875C720.368 221.201 720.795 221.632 721.052 222.167C721.309 222.701 721.438 223.26 721.438 223.844C721.438 224.837 721.222 225.667 720.792 226.333C720.368 227 719.733 227.5 718.885 227.833C718.038 228.167 716.99 228.333 715.74 228.333Z" fill="#008080"/>
</svg>
